<svg width="36" height="34" viewBox="0 0 36 34" fill="none" xmlns="http://www.w3.org/2000/svg">
<path d="M35.231 12.8117C35.006 12.1158 34.3888 11.6216 33.6586 11.5558L23.7401 10.6552L19.818 1.47521C19.5288 0.802437 18.8702 0.366943 18.1385 0.366943C17.4067 0.366943 16.7481 0.802437 16.4589 1.47678L12.5368 10.6552L2.61669 11.5558C1.8878 11.6232 1.27219 12.1158 1.04592 12.8117C0.819652 13.5075 1.02862 14.2708 1.58 14.7519L9.07725 21.327L6.86648 31.0654C6.70471 31.7815 6.98263 32.5216 7.57675 32.9511C7.89609 33.1818 8.26971 33.2993 8.64647 33.2993C8.97132 33.2993 9.29355 33.2117 9.58275 33.0387L18.1385 27.9252L26.691 33.0387C27.3169 33.4152 28.1058 33.3808 28.6986 32.9511C29.293 32.5203 29.5706 31.7799 29.4088 31.0654L27.1981 21.327L34.6953 14.7532C35.2467 14.2708 35.4573 13.5088 35.231 12.8117Z" fill="#F9E106"/>
</svg>
