<svg width="36" height="34" viewBox="0 0 36 34" fill="none" xmlns="http://www.w3.org/2000/svg">
<path d="M0.769016 12.8117C0.993973 12.1158 1.61116 11.6216 2.34135 11.5558L12.2599 10.6552L16.182 1.47521C16.4712 0.802437 17.1298 0.366943 17.8615 0.366943C18.5933 0.366943 19.2519 0.802437 19.5411 1.47678L23.4632 10.6552L33.3833 11.5558C34.1122 11.6232 34.7278 12.1158 34.9541 12.8117C35.1803 13.5075 34.9714 14.2708 34.42 14.7519L26.9228 21.327L29.1335 31.0654C29.2953 31.7815 29.0174 32.5216 28.4233 32.9511C28.1039 33.1818 27.7303 33.2993 27.3535 33.2993C27.0287 33.2993 26.7064 33.2117 26.4173 33.0387L17.8615 27.9252L9.30899 33.0387C8.68315 33.4152 7.89423 33.3808 7.30142 32.9511C6.70704 32.5203 6.42938 31.7799 6.59115 31.0654L8.80192 21.327L1.30466 14.7532C0.753284 14.2708 0.542747 13.5088 0.769016 12.8117Z" fill="#C6C6C6"/>
</svg>
