<svg width="19" height="19" viewBox="0 0 19 19" fill="none" xmlns="http://www.w3.org/2000/svg">
<path d="M15.0416 9.49939C14.6038 9.49939 14.25 9.8541 14.25 10.291V16.6244C14.25 17.0606 13.8953 17.416 13.4584 17.416H2.375C1.93795 17.416 1.58338 17.0606 1.58338 16.6244V5.54101C1.58338 5.10483 1.93795 4.7494 2.375 4.7494H8.70837C9.14614 4.7494 9.49999 4.39468 9.49999 3.95778C9.49999 3.52073 9.14614 3.16602 8.70837 3.16602H2.375C1.06559 3.16602 0 4.2316 0 5.54101V16.6244C0 17.9338 1.06559 18.9994 2.375 18.9994H13.4584C14.7678 18.9994 15.8334 17.9338 15.8334 16.6244V10.291C15.8334 9.85323 15.4794 9.49939 15.0416 9.49939Z" fill="#21B5A5"/>
<path d="M7.67582 9.26365C7.62044 9.31902 7.58319 9.38947 7.56739 9.46543L7.00771 12.2649C6.98161 12.3946 7.02278 12.5284 7.11613 12.6226C7.19137 12.6979 7.29269 12.7382 7.39648 12.7382C7.42171 12.7382 7.44794 12.7358 7.47404 12.7303L10.2726 12.1706C10.3502 12.1547 10.4206 12.1176 10.4753 12.0621L16.7389 5.79842L13.9403 3L7.67582 9.26365Z" fill="#21B5A5"/>
<path d="M18.4204 0.578927C17.6486 -0.192976 16.393 -0.192976 15.6218 0.578927L14.5262 1.67452L17.3248 4.47309L18.4204 3.37735C18.7941 3.00451 18.9999 2.50731 18.9999 1.9785C18.9999 1.44969 18.7941 0.952485 18.4204 0.578927Z" fill="#21B5A5"/>
</svg>
