<svg width="21" height="20" viewBox="0 0 21 20" fill="none" xmlns="http://www.w3.org/2000/svg">
<path d="M20.179 2.43429L18.1788 0.434277C17.9839 0.239193 17.6674 0.238949 17.4722 0.434033C17.4722 0.434155 17.4721 0.434277 17.4719 0.434277L11.472 6.43443C11.3782 6.52812 11.3256 6.6552 11.3256 6.78778V8.78792C11.3256 9.06397 11.5494 9.2878 11.8254 9.2878H13.8256C13.9582 9.2878 14.0852 9.2352 14.1789 9.14139L20.179 3.14136C20.3742 2.94628 20.3743 2.62986 20.1793 2.43465C20.1792 2.43465 20.1792 2.43441 20.179 2.43429ZM13.6185 8.28791H12.3254V6.99498L17.8255 1.49495L19.1184 2.78788L13.6185 8.28791Z" fill="#FEC007"/>
<path d="M18.8254 6.28786C18.5494 6.28786 18.3255 6.51169 18.3255 6.78774V13.7878C18.3247 14.6158 17.6536 15.2869 16.8255 15.2879H11.8255C11.7173 15.2877 11.6119 15.3228 11.5255 15.3878L8.32548 17.7879V15.7879C8.32548 15.5117 8.10165 15.2879 7.82548 15.2879H2.82545C1.99741 15.2869 1.3263 14.6158 1.32557 13.7879V4.78773C1.32642 3.95982 1.99741 3.2887 2.82545 3.28785H11.8255C12.1017 3.28785 12.3255 3.06402 12.3255 2.78784C12.3255 2.51179 12.1017 2.28796 11.8255 2.28796H2.82545C1.44531 2.28931 0.326785 3.40783 0.325439 4.78773V13.7879C0.326785 15.1679 1.44531 16.2864 2.82545 16.2879H7.32547V18.7879C7.32547 19.064 7.5493 19.2878 7.82548 19.2878C7.93372 19.2878 8.03891 19.2527 8.1255 19.1879L11.9927 16.2878H16.8255C18.2057 16.2864 19.3241 15.1679 19.3255 13.7878V6.78786C19.3255 6.51169 19.1016 6.28786 18.8254 6.28786Z" fill="#FEC007"/>
<path d="M8.82534 5.28784H3.82556C3.54927 5.28784 3.32544 5.51167 3.32544 5.78784C3.32544 6.0639 3.54927 6.28772 3.82556 6.28772H8.82534C9.10152 6.28772 9.32547 6.0639 9.32547 5.78784C9.32547 5.51167 9.10152 5.28784 8.82534 5.28784Z" fill="#FEC007"/>
<path d="M3.82556 9.28797H8.82534C9.10152 9.28797 9.32547 9.06402 9.32547 8.78797C9.32547 8.51179 9.10152 8.28796 8.82534 8.28796H3.82556C3.54927 8.28796 3.32544 8.51179 3.32544 8.78797C3.32544 9.06402 3.54927 9.28797 3.82556 9.28797Z" fill="#FEC007"/>
<path d="M3.82556 12.2878H15.8255C16.1017 12.2878 16.3254 12.064 16.3254 11.7878C16.3254 11.5118 16.1016 11.288 15.8255 11.288H3.82556C3.54927 11.288 3.32544 11.5118 3.32544 11.7878C3.32544 12.064 3.54927 12.2878 3.82556 12.2878Z" fill="#FEC007"/>
</svg>
