<svg width="20" height="19" viewBox="0 0 20 19" fill="none" xmlns="http://www.w3.org/2000/svg">
<path d="M13.504 14.5469V16.0312C13.504 17.6683 12.1723 19 10.5353 19H3.07629C1.43928 19 0.107544 17.6683 0.107544 16.0312V2.96875C0.107544 1.33173 1.43928 0 3.07629 0H10.5353C12.1723 0 13.504 1.33173 13.504 2.96875V4.45312C13.504 4.86307 13.1718 5.19531 12.7618 5.19531C12.3519 5.19531 12.0197 4.86307 12.0197 4.45312V2.96875C12.0197 2.15031 11.3537 1.48438 10.5353 1.48438H3.07629C2.25786 1.48438 1.59192 2.15031 1.59192 2.96875V16.0312C1.59192 16.8497 2.25786 17.5156 3.07629 17.5156H10.5353C11.3537 17.5156 12.0197 16.8497 12.0197 16.0312V14.5469C12.0197 14.1369 12.3519 13.8047 12.7618 13.8047C13.1718 13.8047 13.504 14.1369 13.504 14.5469ZM18.5641 8.22509L16.9021 6.56314C16.6122 6.27322 16.1423 6.27322 15.8525 6.56314C15.5626 6.85291 15.5626 7.32287 15.8525 7.61264L17.0346 8.79492H8.12317C7.71323 8.79492 7.38098 9.12717 7.38098 9.53711C7.38098 9.94705 7.71323 10.2793 8.12317 10.2793H17.0346L15.8525 11.4616C15.5626 11.7514 15.5626 12.2213 15.8525 12.5111C15.9975 12.656 16.1874 12.7285 16.3773 12.7285C16.5673 12.7285 16.7572 12.656 16.9021 12.5111L18.5641 10.8491C19.2876 10.1256 19.2876 8.94858 18.5641 8.22509Z" fill="#DD2121"/>
</svg>
