<svg width="19" height="19" viewBox="0 0 19 19" fill="none" xmlns="http://www.w3.org/2000/svg">
<path d="M14.25 19C14.1708 19 14.0917 18.9842 14.0172 18.9525C13.8336 18.8741 9.5 16.9868 9.5 13.1053V9.92434C9.5 9.67021 9.6615 9.44459 9.90296 9.36226L14.0592 7.94834C14.1827 7.90638 14.3173 7.90638 14.4408 7.94834L18.597 9.36226C18.8385 9.44459 19 9.67021 19 9.92434V13.1053C19 16.9868 14.6664 18.8741 14.4827 18.9533C14.4083 18.9842 14.3292 19 14.25 19ZM10.6875 10.3495V13.1045C10.6875 15.7431 13.4235 17.3296 14.25 17.7476C15.0765 17.3296 17.8125 15.7431 17.8125 13.1045V10.3495L14.25 9.13742L10.6875 10.3495Z" fill="#DD6521"/>
<path d="M14.0521 15.4375C13.8954 15.4375 13.7434 15.3757 13.6325 15.2633L12.0492 13.68C11.8173 13.448 11.8173 13.072 12.0492 12.84C12.2812 12.6081 12.6572 12.6081 12.8892 12.84L13.9888 13.9397L15.9521 11.3208C16.1469 11.0588 16.5205 11.0049 16.7834 11.2029C17.0454 11.3992 17.0985 11.7713 16.9013 12.0341L14.5263 15.2008C14.4234 15.3385 14.2659 15.424 14.0933 15.4367C14.0798 15.4367 14.0664 15.4375 14.0521 15.4375Z" fill="#DD6521"/>
<path d="M8.38375 16.625H2.17708C0.976125 16.625 0 15.6489 0 14.4479V2.17708C0 0.976125 0.976125 0 2.17708 0H11.2812C12.4822 0 13.4583 0.976125 13.4583 2.17708V6.47583C13.4583 6.80358 13.1923 7.06958 12.8646 7.06958C12.5368 7.06958 12.2708 6.80358 12.2708 6.47583V2.17708C12.2708 1.63162 11.8267 1.1875 11.2812 1.1875H2.17708C1.63162 1.1875 1.1875 1.63162 1.1875 2.17708V14.4479C1.1875 14.9934 1.63162 15.4375 2.17708 15.4375H8.38375C8.7115 15.4375 8.9775 15.7035 8.9775 16.0312C8.9775 16.359 8.7115 16.625 8.38375 16.625Z" fill="#DD6521"/>
<path d="M10.4896 7.52087H2.96875C2.641 7.52087 2.375 7.25487 2.375 6.92712C2.375 6.59937 2.641 6.33337 2.96875 6.33337H10.4896C10.8173 6.33337 11.0833 6.59937 11.0833 6.92712C11.0833 7.25487 10.8173 7.52087 10.4896 7.52087Z" fill="#DD6521"/>
<path d="M7.32292 10.6875H2.96875C2.641 10.6875 2.375 10.4215 2.375 10.0937C2.375 9.766 2.641 9.5 2.96875 9.5H7.32292C7.65067 9.5 7.91667 9.766 7.91667 10.0937C7.91667 10.4215 7.65067 10.6875 7.32292 10.6875Z" fill="#DD6521"/>
<path d="M6.53125 4.35413H2.96875C2.641 4.35413 2.375 4.08813 2.375 3.76038C2.375 3.43263 2.641 3.16663 2.96875 3.16663H6.53125C6.859 3.16663 7.125 3.43263 7.125 3.76038C7.125 4.08813 6.859 4.35413 6.53125 4.35413Z" fill="#DD6521"/>
</svg>
