<svg width="19" height="19" viewBox="0 0 19 19" fill="none" xmlns="http://www.w3.org/2000/svg">
<path d="M5.62479 7.75326C5.55576 7.68424 5.46002 7.64453 5.36243 7.64453C5.26483 7.64453 5.16912 7.6842 5.10006 7.75326C5.03104 7.82228 4.99133 7.91803 4.99133 8.01562C4.99133 8.11322 5.03104 8.20896 5.10006 8.27795C5.16909 8.34697 5.26483 8.38672 5.36243 8.38672C5.46002 8.38672 5.55576 8.34701 5.62479 8.27795C5.69381 8.20896 5.73352 8.11322 5.73352 8.01562C5.73352 7.91803 5.69381 7.82228 5.62479 7.75326Z" fill="#21B5A5"/>
<path d="M17.8868 0H3.11731C2.50345 0 2.00403 0.499416 2.00403 1.11328V7.27341C2.00403 7.88727 2.50345 8.38669 3.11731 8.38669H3.78527C3.99023 8.38669 4.15637 8.22051 4.15637 8.01559C4.15637 7.81068 3.99023 7.6445 3.78527 7.6445H3.11731C2.91269 7.6445 2.74622 7.47803 2.74622 7.27341V1.11328C2.74622 0.908657 2.91269 0.742185 3.11731 0.742185H17.8868C18.0914 0.742185 18.2579 0.908657 18.2579 1.11328V7.27341C18.2579 7.47803 18.0914 7.6445 17.8868 7.6445H15.4047C15.3062 7.6445 15.2118 7.68361 15.1423 7.75319L13.9203 8.97516L12.6983 7.75319C12.6287 7.68361 12.5343 7.6445 12.4359 7.6445H9.54195C9.51468 7.57444 9.48384 7.5053 9.44892 7.43747C9.18322 6.92124 8.73093 6.54395 8.17548 6.37507L7.63896 6.21194C7.45007 6.15442 7.24924 6.25506 7.18207 6.44072L6.33902 8.77077C6.10519 9.41702 5.644 9.95392 5.04046 10.2826L4.24907 10.7135C4.05458 10.4774 3.76011 10.3266 3.43107 10.3266H1.05979C0.475539 10.3266 0.000244149 10.802 0.000244149 11.3862V17.9403C0.000169931 18.5246 0.475502 18.9999 1.05975 18.9999H3.43103C3.80042 18.9999 4.12605 18.8098 4.31575 18.5224L4.69441 18.6709C5.25113 18.8893 5.83667 19 6.43476 19H11.4418C12.1931 19 12.8043 18.3888 12.8043 17.6375C12.8043 17.3889 12.737 17.1557 12.6202 16.9549C13.1729 16.7812 13.5749 16.2641 13.5749 15.6548C13.5749 15.3998 13.5044 15.161 13.382 14.9568C13.9112 14.7696 14.2914 14.2645 14.2914 13.672C14.2914 13.0549 13.8788 12.5326 13.3151 12.3656C13.4297 12.1661 13.4956 11.9353 13.4956 11.6892C13.4956 10.9379 12.8845 10.3267 12.1332 10.3267H9.15747L9.57361 9.0912C9.65139 8.86024 9.6882 8.62274 9.68568 8.38672H12.2822L13.6579 9.7624C13.7304 9.83484 13.8253 9.87109 13.9203 9.87109C14.0153 9.87109 14.1102 9.83484 14.1827 9.7624L15.5584 8.38669H17.8868C18.5006 8.38669 19.0001 7.88727 19.0001 7.27341V1.11328C19.0001 0.499416 18.5006 0 17.8868 0ZM3.74843 17.9403C3.74839 18.1154 3.60604 18.2577 3.43103 18.2577H1.05975C0.884743 18.2577 0.742392 18.1154 0.742392 17.9403V11.3863C0.742392 11.2113 0.884743 11.0689 1.05975 11.0689H1.8743V15.6378C1.8743 15.8427 2.04044 16.0089 2.24539 16.0089C2.45034 16.0089 2.61648 15.8427 2.61648 15.6378V11.0689H3.43103C3.56963 11.0689 3.68745 11.1583 3.73061 11.2824C3.73369 11.3004 3.73815 11.3182 3.74401 11.3358C3.74664 11.3523 3.74843 11.369 3.74843 11.3863V17.9403ZM12.1332 11.0688V11.0689C12.4753 11.0689 12.7535 11.3471 12.7535 11.6891C12.7535 12.0312 12.4753 12.3095 12.1332 12.3095H10.12C9.91505 12.3095 9.74891 12.4756 9.74891 12.6806C9.74891 12.8855 9.91505 13.0517 10.12 13.0517L12.929 13.0517C13.271 13.0517 13.5492 13.33 13.5492 13.672C13.5492 14.014 13.271 14.2923 12.929 14.2923H10.12C9.91505 14.2923 9.74891 14.4585 9.74891 14.6634C9.74891 14.8683 9.91505 15.0345 10.12 15.0345H12.2125C12.5546 15.0345 12.8328 15.3128 12.8328 15.6548C12.8328 15.9968 12.5546 16.2751 12.2125 16.2751H10.12C9.91505 16.2751 9.74891 16.4412 9.74891 16.6462C9.74891 16.8511 9.91505 17.0173 10.12 17.0173H11.4419C11.7839 17.0173 12.0622 17.2955 12.0622 17.6376C12.0622 17.9796 11.7839 18.2579 11.4419 18.2579H6.43476C5.92982 18.2579 5.43545 18.1643 4.96538 17.98L4.49057 17.7938V11.4271L5.39533 10.9344C6.15833 10.5189 6.74128 9.84025 7.03686 9.02329L7.76008 7.02452L7.95958 7.08515C8.32139 7.19518 8.61597 7.44092 8.78905 7.77713C8.96212 8.11334 8.99096 8.4959 8.87024 8.85426L8.28922 10.5793C8.25107 10.6925 8.26981 10.8172 8.3395 10.9142C8.40923 11.0113 8.52138 11.0688 8.64091 11.0688H12.1332Z" fill="#21B5A5"/>
<path d="M17.3005 3.59864C17.2303 3.38252 17.0469 3.22796 16.8219 3.19534L16.1655 3.10016L15.8718 2.50548C15.7712 2.30171 15.5675 2.17517 15.3403 2.17517H15.3401C15.1128 2.17525 14.9092 2.3019 14.8087 2.50574L14.5153 3.1006L13.8589 3.19616C13.634 3.22892 13.4507 3.38356 13.3805 3.59976C13.3103 3.81592 13.3678 4.04878 13.5307 4.20742L14.0057 4.67025L13.8938 5.324C13.8554 5.54807 13.9458 5.77016 14.1298 5.90376C14.2337 5.9792 14.3552 6.0175 14.4775 6.0175C14.5718 6.0175 14.6666 5.99475 14.7541 5.9487L15.3411 5.63987L15.9283 5.94836C16.1295 6.05405 16.3687 6.03672 16.5526 5.90305C16.7365 5.76939 16.8267 5.54721 16.7883 5.32318L16.676 4.66951L17.1509 4.20638C17.3134 4.04763 17.3708 3.81477 17.3005 3.59864ZM16.1014 4.19302C15.9617 4.32925 15.8981 4.52545 15.9311 4.71778L16.0054 5.15055L15.6166 4.94623C15.4438 4.85561 15.2376 4.85561 15.065 4.94645L14.6763 5.15092L14.7504 4.71812C14.7834 4.52571 14.7196 4.32955 14.5798 4.19339L14.2652 3.88695L14.6998 3.82367C14.893 3.79558 15.0598 3.67431 15.1461 3.4993L15.3403 3.10546L15.5348 3.49919C15.6212 3.67416 15.7881 3.79532 15.9812 3.82334L16.4158 3.88635L16.1014 4.19302Z" fill="#21B5A5"/>
<path d="M12.5797 3.59864C12.5094 3.38252 12.326 3.228 12.1011 3.19534L11.4447 3.10016L11.151 2.50548C11.0503 2.30171 10.8467 2.17517 10.6195 2.17517H10.6193C10.392 2.17525 10.1883 2.3019 10.0878 2.50578L9.79445 3.1006L9.13807 3.19616C8.91315 3.22892 8.72983 3.38356 8.65965 3.59976C8.58948 3.81592 8.647 4.04878 8.80983 4.20742L9.28491 4.67025L9.17295 5.324C9.13458 5.54807 9.22501 5.7702 9.40893 5.90376C9.51279 5.9792 9.63433 6.0175 9.75668 6.0175C9.85093 6.0175 9.94567 5.99475 10.0332 5.9487L10.6202 5.63987L11.2075 5.94836C11.4087 6.05405 11.6478 6.03672 11.8318 5.90305C12.0156 5.76939 12.1059 5.54721 12.0674 5.32318L11.9551 4.66951L12.43 4.20638C12.5926 4.04763 12.65 3.81481 12.5797 3.59864ZM11.3806 4.19302C11.2409 4.32925 11.1773 4.52545 11.2103 4.71778L11.2846 5.15055L10.8957 4.94627C10.7229 4.85553 10.5167 4.85564 10.3441 4.94645L9.95547 5.15092L10.0296 4.71812C10.0625 4.52571 9.99874 4.32955 9.85895 4.19339L9.54437 3.88695L9.97892 3.82367C10.172 3.79558 10.3388 3.67435 10.4252 3.49927L10.6195 3.10542L10.8139 3.49912C10.9003 3.67412 11.0672 3.79532 11.2603 3.82334L11.6949 3.88635L11.3806 4.19302Z" fill="#21B5A5"/>
<path d="M7.85905 3.59864C7.78873 3.38252 7.60534 3.22796 7.38042 3.19534L6.72403 3.10016L6.43031 2.50548C6.32967 2.30171 6.12605 2.17517 5.89879 2.17517H5.89865C5.67135 2.17525 5.46766 2.3019 5.36713 2.50578L5.07378 3.1006L4.41739 3.19616C4.19244 3.22892 4.00915 3.3836 3.93894 3.59979C3.86877 3.81596 3.92633 4.04882 4.08913 4.20742L4.5642 4.67025L4.45224 5.324C4.41387 5.54807 4.5043 5.7702 4.68822 5.90376C4.79209 5.9792 4.91362 6.0175 5.03597 6.0175C5.13022 6.0175 5.22496 5.99475 5.31251 5.9487L5.89954 5.63987L6.48672 5.94836C6.68792 6.05405 6.92713 6.03672 7.111 5.90305C7.29484 5.76939 7.38513 5.54721 7.34665 5.32318L7.23436 4.66951L7.70924 4.20638C7.87197 4.04763 7.92934 3.81481 7.85905 3.59864ZM6.65994 4.19302C6.52023 4.32925 6.45658 4.52545 6.48961 4.71778L6.56394 5.15055L6.17507 4.94627C6.00229 4.85553 5.796 4.85564 5.62344 4.94645L5.2348 5.15092L5.30894 4.71801C5.34182 4.52567 5.27803 4.32958 5.13828 4.19339L4.8237 3.88695L5.25825 3.82367C5.45137 3.79558 5.61817 3.67435 5.70456 3.49927L5.89879 3.10542L6.09321 3.49912C6.1796 3.67412 6.34652 3.79532 6.53967 3.82334L6.97429 3.88635L6.65994 4.19302Z" fill="#21B5A5"/>
<path d="M2.24548 16.6012C2.04053 16.6012 1.87439 16.7674 1.87439 16.9723V16.9781C1.87439 17.183 2.04053 17.3492 2.24548 17.3492C2.45044 17.3492 2.61657 17.183 2.61657 16.9781V16.9723C2.61657 16.7674 2.45044 16.6012 2.24548 16.6012Z" fill="#21B5A5"/>
</svg>
