<svg width="19" height="16" viewBox="0 0 19 16" fill="none" xmlns="http://www.w3.org/2000/svg">
<path d="M9.50572 13.5505C9.50572 13.8852 9.31232 14.1893 9.00967 14.3312C8.89266 14.3866 8.76727 14.4133 8.64269 14.4133C8.44542 14.4133 8.24998 14.3455 8.09212 14.2146L3.3751 10.3059H0.862819C0.38638 10.3063 0 9.91971 0 9.44327V6.00568C0 5.52903 0.38638 5.14265 0.862819 5.14265H3.37531L8.09233 1.23393C8.35005 1.02032 8.70743 0.974776 9.00988 1.11773C9.31232 1.25966 9.50592 1.56394 9.50592 1.89845L9.50572 13.5505ZM12.8216 12.2023C12.8006 12.2037 12.7803 12.2045 12.7595 12.2045C12.5316 12.2045 12.3119 12.1144 12.1495 11.9519L12.0341 11.8361C11.7315 11.5341 11.696 11.0556 11.9508 10.7121C12.597 9.84089 12.938 8.80816 12.938 7.72478C12.938 6.55952 12.5508 5.46654 11.8181 4.5639C11.5391 4.22082 11.5648 3.72252 11.8775 3.41007L11.9927 3.29469C12.165 3.12233 12.396 3.02839 12.646 3.0433C12.8894 3.05555 13.1167 3.17012 13.2711 3.35881C14.2875 4.6025 14.8244 6.11248 14.8244 7.72499C14.8244 9.2268 14.3496 10.6563 13.451 11.8584C13.3009 12.0587 13.0714 12.1845 12.8216 12.2023ZM16.3889 14.8687C16.2329 15.0531 16.0072 15.1638 15.7656 15.174C15.7538 15.1744 15.7417 15.1748 15.7295 15.1748C15.5009 15.1748 15.2816 15.0846 15.1193 14.9222L15.0059 14.8089C14.6892 14.4923 14.6677 13.9861 14.9557 13.6434C16.3472 11.9884 17.1138 9.88663 17.1138 7.72478C17.1138 5.47614 16.2931 3.31143 14.8033 1.6295C14.5013 1.28805 14.5166 0.771171 14.838 0.448507L14.9512 0.335166C15.119 0.166482 15.3372 0.0735633 15.5873 0.0815278C15.8248 0.088267 16.0495 0.193235 16.2073 0.370904C18.0081 2.39838 19 5.01032 19 7.72478C19.0004 10.3365 18.0731 12.8737 16.3889 14.8687Z" fill="white"/>
</svg>
