<svg width="16" height="10" viewBox="0 0 16 10" fill="none" xmlns="http://www.w3.org/2000/svg">
<path d="M0.752767 0.000166481C0.566032 0.00419863 0.388305 0.0812102 0.257666 0.2147C0.127027 0.34819 0.0538702 0.527539 0.0538702 0.714317C0.0538702 0.901095 0.127027 1.08044 0.257666 1.21393C0.388305 1.34742 0.566032 1.42444 0.752767 1.42847H15.0344C15.1295 1.43052 15.224 1.41357 15.3124 1.3786C15.4009 1.34363 15.4815 1.29136 15.5494 1.22484C15.6174 1.15832 15.6714 1.0789 15.7083 0.991233C15.7451 0.903566 15.7641 0.80942 15.7641 0.714317C15.7641 0.619214 15.7451 0.525068 15.7083 0.437402C15.6714 0.349735 15.6174 0.270314 15.5494 0.203796C15.4815 0.137277 15.4009 0.0850016 15.3124 0.0500346C15.224 0.0150675 15.1295 -0.0018866 15.0344 0.000166481H0.752767ZM0.678841 4.28507C0.489252 4.29487 0.311321 4.37959 0.184193 4.52058C0.0570652 4.66157 -0.00884725 4.84729 0.000955907 5.03688C0.0107591 5.22647 0.0954748 5.4044 0.236467 5.53153C0.377459 5.65866 0.563177 5.72457 0.752767 5.71477H15.0344C15.224 5.71477 15.4058 5.63945 15.5399 5.50539C15.6739 5.37133 15.7492 5.18951 15.7492 4.99992C15.7492 4.81033 15.6739 4.6285 15.5399 4.49444C15.4058 4.36038 15.224 4.28507 15.0344 4.28507H0.752767C0.728141 4.28379 0.703466 4.28379 0.678841 4.28507ZM0.678841 8.57137C0.492284 8.58502 0.318499 8.67122 0.194735 8.81148C0.0709699 8.95173 0.00707454 9.1349 0.0167432 9.3217C0.0264119 9.50851 0.108875 9.68409 0.246459 9.81082C0.384042 9.93755 0.565797 10.0053 0.752767 9.99967H15.0344C15.2211 9.99564 15.3988 9.91863 15.5295 9.78514C15.6601 9.65165 15.7333 9.4723 15.7333 9.28552C15.7333 9.09874 15.6601 8.91939 15.5295 8.7859C15.3988 8.65241 15.2211 8.5754 15.0344 8.57137H0.752767C0.728141 8.57009 0.703466 8.57009 0.678841 8.57137Z" fill="#30B9C2"/>
</svg>
