<svg width="19" height="19" viewBox="0 0 19 19" fill="none" xmlns="http://www.w3.org/2000/svg">
<path d="M15.0416 9.49939C14.6038 9.49939 14.25 9.8541 14.25 10.291V16.6244C14.25 17.0606 13.8953 17.416 13.4584 17.416H2.375C1.93795 17.416 1.58338 17.0606 1.58338 16.6244V5.54101C1.58338 5.10483 1.93795 4.7494 2.375 4.7494H8.70837C9.14614 4.7494 9.49999 4.39468 9.49999 3.95778C9.49999 3.52073 9.14614 3.16602 8.70837 3.16602H2.375C1.06559 3.16602 0 4.2316 0 5.54101V16.6244C0 17.9338 1.06559 18.9994 2.375 18.9994H13.4584C14.7678 18.9994 15.8334 17.9338 15.8334 16.6244V10.291C15.8334 9.85323 15.4794 9.49939 15.0416 9.49939Z" fill="white"/>
<path d="M7.42258 8.7783C7.36721 8.83367 7.32996 8.90412 7.31415 8.98008L6.75447 11.7795C6.72838 11.9093 6.76955 12.043 6.8629 12.1373C6.93813 12.2125 7.03946 12.2528 7.14325 12.2528C7.16847 12.2528 7.19471 12.2505 7.2208 12.245L10.0194 11.6853C10.0969 11.6693 10.1674 11.6322 10.222 11.5767L16.4857 5.31307L13.6871 2.51465L7.42258 8.7783Z" fill="white"/>
<path d="M18.4205 0.578927C17.6487 -0.192976 16.3931 -0.192976 15.6219 0.578927L14.5263 1.67452L17.3249 4.47309L18.4205 3.37735C18.7942 3.00451 19 2.50731 19 1.9785C19 1.44969 18.7942 0.952485 18.4205 0.578927Z" fill="white"/>
</svg>
