<svg width="18" height="21" viewBox="0 0 18 21" fill="none" xmlns="http://www.w3.org/2000/svg">
<path d="M11.9576 18.6667C11.6122 20.0084 10.3942 21 8.94445 21C7.49467 21 6.27667 20.0084 5.93134 18.6667H11.9576Z" fill="#30B9C2"/>
<path d="M17.3721 15.813C16.6849 15.5124 15.5556 14.5246 15.5556 11.2778V7.77778C15.5556 4.74056 13.3782 2.21511 10.5 1.66872L10.1111 1.59483C10.1111 1.38211 10.1111 1.267 10.1111 1.16667C10.1111 0.522278 9.58883 0 8.94444 0C8.30006 0 7.77778 0.522278 7.77778 1.16667V1.59483L7.38889 1.66872C4.51072 2.21511 2.33333 4.74056 2.33333 7.77778V11.2778C2.33333 14.5246 1.204 15.5124 0.516834 15.813C0.199111 15.9518 0 16.2696 0 16.6161C0 17.1041 0.395889 17.5 0.883944 17.5H17.0046C17.493 17.5 17.8889 17.1041 17.8889 16.6161C17.8889 16.2696 17.6898 15.9518 17.3721 15.813Z" fill="#30B9C2"/>
</svg>
