<svg width="14" height="16" viewBox="0 0 14 16" fill="none" xmlns="http://www.w3.org/2000/svg">
<path d="M9.54035 13.4941C9.29221 14.4582 8.41699 15.1708 7.37522 15.1708C6.33345 15.1708 5.45823 14.4582 5.21008 13.4941H9.54035Z" fill="white"/>
<path d="M13.4311 11.4438C12.9373 11.2278 12.1258 10.518 12.1258 8.18494V5.66994C12.1258 3.48748 10.5612 1.67277 8.493 1.28015L8.21355 1.22706C8.21355 1.0742 8.21355 0.991485 8.21355 0.919388C8.21355 0.456349 7.83826 0.0810547 7.37522 0.0810547C6.91218 0.0810547 6.53689 0.456349 6.53689 0.919388V1.22706L6.25744 1.28015C4.18927 1.67277 2.62466 3.48748 2.62466 5.66994V8.18494C2.62466 10.518 1.81316 11.2278 1.31938 11.4438C1.09107 11.5436 0.947998 11.7719 0.947998 12.0209C0.947998 12.3716 1.23247 12.6561 1.58318 12.6561H13.167C13.518 12.6561 13.8024 12.3716 13.8024 12.0209C13.8024 11.7719 13.6594 11.5436 13.4311 11.4438Z" fill="white"/>
</svg>
