<svg width="67" height="67" viewBox="0 0 67 67" fill="none" xmlns="http://www.w3.org/2000/svg">
<circle cx="33.8783" cy="33.3642" r="33.1188" fill="#CF82FF"/>
<path d="M15.3674 15.5521H44.7173C45.2733 15.5521 45.8065 15.773 46.1997 16.1662C46.5929 16.5593 46.8137 17.0925 46.8137 17.6485V21.1426H13.271V17.6485C13.271 17.0925 13.4919 16.5593 13.885 16.1662C14.2782 15.773 14.8114 15.5521 15.3674 15.5521Z" fill="#FF786E"/>
<path d="M16.7652 16.9498H45.4163C45.7869 16.9498 46.1424 17.0971 46.4045 17.3592C46.6666 17.6213 46.8139 17.9768 46.8139 18.3474V21.1427H15.3676V18.3474C15.3676 17.9768 15.5148 17.6213 15.7769 17.3592C16.039 17.0971 16.3945 16.9498 16.7652 16.9498Z" fill="#FF5050"/>
<path d="M13.271 21.1426V48.3961C13.271 48.9521 13.4919 49.4853 13.885 49.8784C14.2782 50.2716 14.8114 50.4925 15.3674 50.4925H46.8137V21.1426H13.271Z" fill="#F5FAFF"/>
<path d="M15.3676 21.1426V49.0949C15.3676 49.4655 15.5148 49.821 15.7769 50.0831C16.039 50.3452 16.3945 50.4925 16.7652 50.4925H46.8139V21.1426H15.3676Z" fill="#E6F0FF"/>
<path d="M30.0424 44.2033C34.6737 44.2033 38.4281 40.4489 38.4281 35.8176C38.4281 31.1863 34.6737 27.4319 30.0424 27.4319C25.4111 27.4319 21.6567 31.1863 21.6567 35.8176C21.6567 40.4489 25.4111 44.2033 30.0424 44.2033Z" fill="#64DCFF"/>
<path d="M31.44 28.8295C29.8657 28.8279 28.3228 29.27 26.9881 30.105C25.6535 30.9401 24.5812 32.1343 23.8942 33.5508C23.2071 34.9673 22.9331 36.5487 23.1036 38.1138C23.274 39.6789 23.882 41.1642 24.8579 42.3996C26.4687 43.672 28.4906 44.3087 30.5398 44.1888C32.5889 44.069 34.5228 43.2009 35.9743 41.7494C37.4257 40.298 38.2938 38.3641 38.4136 36.3149C38.5335 34.2657 37.8968 32.2439 36.6244 30.6331C35.1494 29.4639 33.3222 28.8282 31.44 28.8295Z" fill="#82F0FF"/>
<path d="M30.0424 29.5283C29.8571 29.5283 29.6794 29.4546 29.5483 29.3236C29.4173 29.1925 29.3436 29.0148 29.3436 28.8295V26.733H30.7412V28.8295C30.7412 29.0148 30.6676 29.1925 30.5366 29.3236C30.4055 29.4546 30.2278 29.5283 30.0424 29.5283Z" fill="#3F4D56"/>
<path d="M30.7412 44.9019H29.3436V42.8055C29.3436 42.6202 29.4173 42.4424 29.5483 42.3114C29.6794 42.1803 29.8571 42.1067 30.0424 42.1067C30.2278 42.1067 30.4055 42.1803 30.5366 42.3114C30.6676 42.4424 30.7412 42.6202 30.7412 42.8055V44.9019Z" fill="#3F4D56"/>
<path d="M24.607 31.3703L23.1241 29.8881L24.113 28.8993L25.5951 30.3815C25.7261 30.5125 25.7997 30.6902 25.7997 30.8755C25.7997 31.0608 25.7261 31.2385 25.5951 31.3696C25.4642 31.5007 25.2865 31.5744 25.1012 31.5745C24.9159 31.5747 24.7382 31.5012 24.607 31.3703Z" fill="#3F4D56"/>
<path d="M35.9718 42.7357L34.4896 41.2535C34.3586 41.1225 34.285 40.9447 34.285 40.7594C34.285 40.5742 34.3586 40.3964 34.4896 40.2654C34.6207 40.1344 34.7984 40.0608 34.9837 40.0608C35.169 40.0608 35.3467 40.1344 35.4777 40.2654L36.9606 41.7469L35.9718 42.7357Z" fill="#3F4D56"/>
<path d="M23.0544 36.5163H20.958V35.1187H23.0544C23.2398 35.1187 23.4175 35.1923 23.5486 35.3233C23.6796 35.4544 23.7532 35.6321 23.7532 35.8175C23.7532 36.0028 23.6796 36.1805 23.5486 36.3116C23.4175 36.4426 23.2398 36.5163 23.0544 36.5163Z" fill="#3F4D56"/>
<path d="M39.1269 36.5163H37.0305C36.8451 36.5163 36.6674 36.4426 36.5363 36.3116C36.4053 36.1805 36.3317 36.0028 36.3317 35.8175C36.3317 35.6321 36.4053 35.4544 36.5363 35.3233C36.6674 35.1923 36.8451 35.1187 37.0305 35.1187H39.1269V36.5163Z" fill="#3F4D56"/>
<path d="M24.113 42.7356L23.1241 41.7468L24.6063 40.2647C24.7374 40.1337 24.9151 40.0601 25.1004 40.0601C25.2857 40.0601 25.4634 40.1337 25.5944 40.2647C25.7254 40.3957 25.799 40.5734 25.799 40.7587C25.799 40.944 25.7254 41.1217 25.5944 41.2528L24.113 42.7356Z" fill="#3F4D56"/>
<path d="M34.4896 31.3703C34.3586 31.2392 34.285 31.0615 34.285 30.8762C34.285 30.6909 34.3586 30.5132 34.4896 30.3822L35.9718 28.8993L36.9606 29.8881L35.4784 31.3703C35.4135 31.4352 35.3365 31.4868 35.2516 31.522C35.1668 31.5571 35.0759 31.5752 34.984 31.5752C34.8922 31.5752 34.8013 31.5571 34.7164 31.522C34.6316 31.4868 34.5545 31.4352 34.4896 31.3703Z" fill="#3F4D56"/>
<path d="M32.8377 36.5164H30.0424C29.8571 36.5164 29.6794 36.4427 29.5483 36.3117C29.4173 36.1806 29.3436 36.0029 29.3436 35.8176V31.6247C29.3436 31.4394 29.4173 31.2616 29.5483 31.1306C29.6794 30.9995 29.8571 30.9259 30.0424 30.9259C30.2278 30.9259 30.4055 30.9995 30.5366 31.1306C30.6676 31.2616 30.7412 31.4394 30.7412 31.6247V35.1187H32.8377C33.023 35.1187 33.2007 35.1924 33.3318 35.3234C33.4628 35.4545 33.5365 35.6322 33.5365 35.8176C33.5365 36.0029 33.4628 36.1806 33.3318 36.3117C33.2007 36.4427 33.023 36.5164 32.8377 36.5164Z" fill="#3F4D56"/>
<path d="M30.0424 24.6366C27.831 24.6366 25.6693 25.2923 23.8306 26.5209C21.9919 27.7495 20.5588 29.4957 19.7126 31.5388C18.8663 33.5818 18.6449 35.8299 19.0763 37.9988C19.5077 40.1677 20.5726 42.1599 22.1363 43.7236C23.6999 45.2873 25.6922 46.3522 27.8611 46.7836C30.03 47.215 32.2781 46.9936 34.3211 46.1473C36.3642 45.3011 38.1104 43.868 39.339 42.0293C40.5675 40.1906 41.2233 38.0289 41.2233 35.8175C41.2233 32.8521 40.0453 30.0082 37.9485 27.9114C35.8516 25.8146 33.0077 24.6366 30.0424 24.6366ZM30.0424 44.2032C28.3838 44.2032 26.7625 43.7114 25.3835 42.7899C24.0045 41.8685 22.9297 40.5589 22.295 39.0266C21.6603 37.4943 21.4942 35.8082 21.8178 34.1815C22.1414 32.5549 22.94 31.0607 24.1128 29.8879C25.2856 28.7152 26.7797 27.9165 28.4064 27.593C30.0331 27.2694 31.7191 27.4355 33.2514 28.0701C34.7837 28.7048 36.0934 29.7797 37.0148 31.1587C37.9362 32.5377 38.428 34.159 38.428 35.8175C38.428 38.0415 37.5446 40.1745 35.9719 41.7471C34.3993 43.3197 32.2664 44.2032 30.0424 44.2032Z" fill="#FF786E"/>
<path d="M31.44 26.0343C29.3127 26.0334 27.2294 26.6397 25.4347 27.7818C23.6401 28.9239 22.2086 30.5544 21.3085 32.4819C20.4084 34.4093 20.077 36.5536 20.3534 38.6628C20.6297 40.772 21.5022 42.7586 22.8684 44.3892C25.0101 46.1847 27.7468 47.1127 30.5389 46.9902C33.331 46.8676 35.9759 45.7035 37.9521 43.7273C39.9283 41.7511 41.0924 39.1062 41.2149 36.3141C41.3374 33.522 40.4094 30.7854 38.6139 28.6437C36.6049 26.9556 34.0641 26.0314 31.44 26.0343ZM30.0424 44.2033C28.3838 44.2033 26.7625 43.7115 25.3835 42.79C24.0045 41.8686 22.9297 40.559 22.295 39.0267C21.6603 37.4944 21.4942 35.8083 21.8178 34.1816C22.1414 32.555 22.94 31.0608 24.1128 29.888C25.2855 28.7153 26.7797 27.9166 28.4064 27.5931C30.0331 27.2695 31.7191 27.4356 33.2514 28.0702C34.7837 28.7049 36.0934 29.7798 37.0148 31.1588C37.9362 32.5378 38.428 34.1591 38.428 35.8176C38.428 38.0416 37.5446 40.1746 35.9719 41.7472C34.3993 43.3198 32.2664 44.2033 30.0424 44.2033Z" fill="#FF5050"/>
<path d="M19.5604 14.1546C19.5604 13.3827 18.9346 12.757 18.1628 12.757C17.3909 12.757 16.7651 13.3827 16.7651 14.1546V16.9498C16.7651 17.7217 17.3909 18.3474 18.1628 18.3474C18.9346 18.3474 19.5604 17.7217 19.5604 16.9498V14.1546Z" fill="#FFFF96"/>
<path d="M19.5602 16.9498V14.1545C19.1895 14.1545 18.8341 14.3018 18.5719 14.5639C18.3098 14.826 18.1626 15.1815 18.1626 15.5522V18.3474C18.5333 18.3474 18.8888 18.2001 19.1509 17.938C19.413 17.6759 19.5602 17.3204 19.5602 16.9498Z" fill="#FFF450"/>
<path d="M25.8495 14.1546C25.8495 13.3827 25.2238 12.757 24.4519 12.757C23.6801 12.757 23.0543 13.3827 23.0543 14.1546V16.9498C23.0543 17.7217 23.6801 18.3474 24.4519 18.3474C25.2238 18.3474 25.8495 17.7217 25.8495 16.9498V14.1546Z" fill="#FFFF96"/>
<path d="M25.8495 16.9498V14.1545C25.4788 14.1545 25.1234 14.3018 24.8613 14.5639C24.5992 14.826 24.4519 15.1815 24.4519 15.5522V18.3474C24.8226 18.3474 25.1781 18.2001 25.4402 17.938C25.7023 17.6759 25.8495 17.3204 25.8495 16.9498Z" fill="#FFF450"/>
<path d="M37.0306 14.1546C37.0306 13.3827 36.4048 12.757 35.633 12.757C34.8611 12.757 34.2354 13.3827 34.2354 14.1546V16.9498C34.2354 17.7217 34.8611 18.3474 35.633 18.3474C36.4048 18.3474 37.0306 17.7217 37.0306 16.9498V14.1546Z" fill="#FFFF96"/>
<path d="M37.0304 16.9498V14.1545C36.6598 14.1545 36.3043 14.3018 36.0422 14.5639C35.7801 14.826 35.6328 15.1815 35.6328 15.5522V18.3474C36.0035 18.3474 36.359 18.2001 36.6211 17.938C36.8832 17.6759 37.0304 17.3204 37.0304 16.9498Z" fill="#FFF450"/>
<path d="M43.3198 14.1546C43.3198 13.3827 42.694 12.757 41.9222 12.757C41.1503 12.757 40.5245 13.3827 40.5245 14.1546V16.9498C40.5245 17.7217 41.1503 18.3474 41.9222 18.3474C42.694 18.3474 43.3198 17.7217 43.3198 16.9498V14.1546Z" fill="#FFFF96"/>
<path d="M43.3197 16.9498V14.1545C42.9491 14.1545 42.5936 14.3018 42.3315 14.5639C42.0694 14.826 41.9221 15.1815 41.9221 15.5522V18.3474C42.2928 18.3474 42.6483 18.2001 42.9104 17.938C43.1725 17.6759 43.3197 17.3204 43.3197 16.9498Z" fill="#FFF450"/>
<path d="M47.5125 35.1188C47.8832 35.1188 48.2386 35.266 48.5007 35.5281C48.7628 35.7902 48.9101 36.1457 48.9101 36.5164V38.6128H46.1149V36.5164C46.1149 36.1457 46.2621 35.7902 46.5242 35.5281C46.7863 35.266 47.1418 35.1188 47.5125 35.1188Z" fill="#FFF450"/>
<path d="M47.5126 54.6854C49.0564 54.6854 50.3079 53.434 50.3079 51.8902C50.3079 50.3464 49.0564 49.095 47.5126 49.095C45.9689 49.095 44.7174 50.3464 44.7174 51.8902C44.7174 53.434 45.9689 54.6854 47.5126 54.6854Z" fill="#FFBE37"/>
<path d="M47.5125 37.9139C48.8099 37.9139 50.0541 38.4293 50.9714 39.3467C51.8888 40.264 52.4042 41.5082 52.4042 42.8056V44.4785C52.4042 46.1215 52.8905 47.7278 53.8018 49.0949H41.2233C42.1346 47.7278 42.6209 46.1215 42.6209 44.4785V42.8056C42.6209 41.5082 43.1362 40.264 44.0536 39.3467C44.971 38.4293 46.2152 37.9139 47.5125 37.9139Z" fill="#FFD246"/>
<path d="M52.4041 42.8057C52.4047 41.6142 51.968 40.464 51.177 39.573C50.4412 39.322 49.6562 39.2504 48.8872 39.3639C48.1182 39.4774 47.3874 39.7729 46.7555 40.2258C46.1237 40.6787 45.6091 41.2759 45.2546 41.9677C44.9001 42.6595 44.7158 43.4259 44.7172 44.2033V44.4786C44.7172 46.1216 44.2309 47.7279 43.3196 49.095H53.8017C52.8904 47.7279 52.4041 46.1216 52.4041 44.4786V42.8057Z" fill="#FFBE37"/>
<path d="M53.8018 49.095H41.2233C40.4514 49.095 39.8257 49.7207 39.8257 50.4926C39.8257 51.2645 40.4514 51.8902 41.2233 51.8902H53.8018C54.5737 51.8902 55.1994 51.2645 55.1994 50.4926C55.1994 49.7207 54.5737 49.095 53.8018 49.095Z" fill="#FFFF96"/>
<path d="M55.1995 50.4926H43.3197C42.9491 50.4926 42.5936 50.6398 42.3315 50.9019C42.0694 51.164 41.9221 51.5195 41.9221 51.8902H53.8018C54.1725 51.8902 54.528 51.7429 54.7901 51.4808C55.0522 51.2187 55.1995 50.8632 55.1995 50.4926Z" fill="#FFF450"/>
</svg>
