<svg width="19" height="19" viewBox="0 0 19 19" fill="none" xmlns="http://www.w3.org/2000/svg">
<path d="M18.3273 17.1291L14.7498 13.5516C16.0943 11.8999 16.7531 9.79488 16.5901 7.67134C16.4271 5.54781 15.4547 3.568 13.8737 2.14087C12.2928 0.713744 10.2242 -0.0516774 8.09508 0.00271211C5.96599 0.0571016 3.93912 0.927148 2.43313 2.43313C0.927148 3.93912 0.0571016 5.96599 0.00271211 8.09508C-0.0516774 10.2242 0.713745 12.2928 2.14087 13.8737C3.568 15.4547 5.54781 16.4271 7.67134 16.5901C9.79488 16.7531 11.8999 16.0943 13.5516 14.7498L17.1291 18.3273C17.2891 18.4841 17.5042 18.572 17.7282 18.572C17.9522 18.572 18.1673 18.4841 18.3273 18.3273C18.4853 18.1679 18.574 17.9526 18.574 17.7282C18.574 17.5038 18.4853 17.2884 18.3273 17.1291ZM1.69695 8.31194C1.69695 7.00362 2.08491 5.72468 2.81177 4.63685C3.53864 3.54902 4.57176 2.70116 5.78049 2.20048C6.98923 1.69981 8.31928 1.56881 9.60247 1.82405C10.8857 2.07929 12.0643 2.70931 12.9895 3.63443C13.9146 4.55956 14.5446 5.73824 14.7998 7.02142C15.0551 8.30461 14.9241 9.63466 14.4234 10.8434C13.9227 12.0521 13.0749 13.0853 11.987 13.8121C10.8992 14.539 9.62027 14.9269 8.31195 14.9269C6.55841 14.9241 4.8775 14.2263 3.63756 12.9863C2.39762 11.7464 1.69978 10.0655 1.69695 8.31194Z" fill="#727272"/>
</svg>
