<svg width="276" height="240" viewBox="0 0 276 240" fill="none" xmlns="http://www.w3.org/2000/svg">
<path opacity="0.42" d="M97.7317 61.4506C151.119 42.8358 140.571 -10.442 208.858 2.706C277.146 15.8547 328.377 176.277 175.941 216.099C23.5064 255.922 -24.2873 126.366 12.4787 82.0216C42.0209 46.3892 65.497 72.6907 97.7317 61.4506Z" fill="#BDBDEF"/>
<path opacity="0.19" d="M43.5155 239.168C61.4356 239.168 75.9627 235.5 75.9627 230.975C75.9627 226.451 61.4356 222.783 43.5155 222.783C25.5955 222.783 11.0684 226.451 11.0684 230.975C11.0684 235.5 25.5955 239.168 43.5155 239.168Z" fill="#18185B"/>
<path opacity="0.19" d="M192.291 233.539C210.852 233.539 225.898 228.628 225.898 222.569C225.898 216.51 210.852 211.599 192.291 211.599C173.73 211.599 158.683 216.51 158.683 222.569C158.683 228.628 173.73 233.539 192.291 233.539Z" fill="#18185B"/>
<path opacity="0.19" d="M106.583 214.224C143.783 214.224 173.94 210.945 173.94 206.9C173.94 202.855 143.783 199.576 106.583 199.576C69.3827 199.576 39.2258 202.855 39.2258 206.9C39.2258 210.945 69.3827 214.224 106.583 214.224Z" fill="#18185B"/>
<path d="M155.379 209.266H57.6234C49.5976 209.266 43.0914 202.76 43.0914 194.734V28.6904C43.0914 20.6646 49.5976 14.1584 57.6234 14.1584H155.379C163.405 14.1584 169.911 20.6646 169.911 28.6904V194.734C169.911 202.76 163.405 209.266 155.379 209.266Z" fill="#35BBB2"/>
<path opacity="0.13" d="M46.7334 195.479V28.7667C46.7334 23.0342 51.3809 18.3867 57.1134 18.3867H155.539C161.271 18.3867 165.919 23.0342 165.919 28.7667V195.479C165.919 201.212 161.271 205.859 155.539 205.859H57.1134C51.3809 205.859 46.7334 201.212 46.7334 195.479Z" fill="#751212"/>
<path opacity="0.13" d="M48.006 195.59V28.6552C48.006 23.6866 52.0334 19.6592 57.002 19.6592H155.65C160.619 19.6592 164.646 23.6866 164.646 28.6552V195.591C164.646 200.56 160.619 204.587 155.65 204.587H57.002C52.0334 204.587 48.006 200.559 48.006 195.59Z" fill="#751212"/>
<path d="M49.9146 195.758V28.4879C49.9146 24.666 53.0126 21.5679 56.8346 21.5679H155.818C159.639 21.5679 162.738 24.666 162.738 28.4879V195.758C162.738 199.58 159.639 202.678 155.818 202.678H56.8346C53.0126 202.678 49.9146 199.58 49.9146 195.758Z" fill="white"/>
<path d="M89.5703 21.5809L98.23 13.6284H119.225L128.451 21.5809H89.5703Z" fill="#7D8985"/>
<path d="M92.7515 5.99365L98.23 13.9461H119.225L125.27 5.99365H92.7515Z" fill="#9CA7A3"/>
<g opacity="0.42">
<path d="M148.06 72.6908H141.925C139.695 72.6908 137.889 70.8833 137.889 68.6543V62.5184C137.889 60.2888 139.696 58.4819 141.925 58.4819H148.06C150.29 58.4819 152.097 60.2894 152.097 62.5184V68.6543C152.097 70.8833 150.29 72.6908 148.06 72.6908Z" fill="#B1B1E5"/>
<path d="M148.06 100.934H141.925C139.695 100.934 137.889 99.1265 137.889 96.8975V90.7623C137.889 88.5326 139.696 86.7258 141.925 86.7258H148.06C150.29 86.7258 152.097 88.5333 152.097 90.7623V96.8975C152.097 99.1272 150.29 100.934 148.06 100.934Z" fill="#B1B1E5"/>
<path d="M148.06 129.177H141.925C139.695 129.177 137.889 127.37 137.889 125.141V119.005C137.889 116.775 139.696 114.969 141.925 114.969H148.06C150.29 114.969 152.097 116.776 152.097 119.005V125.141C152.097 127.371 150.29 129.177 148.06 129.177Z" fill="#B1B1E5"/>
<path d="M148.06 157.421H141.925C139.695 157.421 137.889 155.613 137.889 153.384V147.249C137.889 145.019 139.696 143.212 141.925 143.212H148.06C150.29 143.212 152.097 145.02 152.097 147.249V153.384C152.097 155.614 150.29 157.421 148.06 157.421Z" fill="#B1B1E5"/>
<path d="M148.06 186.301H141.925C139.695 186.301 137.889 184.493 137.889 182.264V176.129C137.889 173.899 139.696 172.093 141.925 172.093H148.06C150.29 172.093 152.097 173.9 152.097 176.129V182.264C152.097 184.493 150.29 186.301 148.06 186.301Z" fill="#B1B1E5"/>
</g>
<path d="M61.4474 62.7231H133.222" stroke="#B1B1E5" stroke-width="0.9194" stroke-miterlimit="10" stroke-linecap="round" stroke-linejoin="round"/>
<path d="M61.4474 69.9338H133.222" stroke="#B1B1E5" stroke-width="0.9194" stroke-miterlimit="10" stroke-linecap="round" stroke-linejoin="round"/>
<path d="M61.4474 90.9666H133.222" stroke="#B1B1E5" stroke-width="0.9194" stroke-miterlimit="10" stroke-linecap="round" stroke-linejoin="round"/>
<path d="M61.4474 98.177H133.222" stroke="#B1B1E5" stroke-width="0.9194" stroke-miterlimit="10" stroke-linecap="round" stroke-linejoin="round"/>
<path d="M61.4474 119.21H133.222" stroke="#B1B1E5" stroke-width="0.9194" stroke-miterlimit="10" stroke-linecap="round" stroke-linejoin="round"/>
<path d="M61.4474 126.42H133.222" stroke="#B1B1E5" stroke-width="0.9194" stroke-miterlimit="10" stroke-linecap="round" stroke-linejoin="round"/>
<path d="M61.4474 147.454H133.222" stroke="#B1B1E5" stroke-width="0.9194" stroke-miterlimit="10" stroke-linecap="round" stroke-linejoin="round"/>
<path d="M61.4474 154.664H133.222" stroke="#B1B1E5" stroke-width="0.9194" stroke-miterlimit="10" stroke-linecap="round" stroke-linejoin="round"/>
<path d="M61.4474 175.697H133.222" stroke="#B1B1E5" stroke-width="0.9194" stroke-miterlimit="10" stroke-linecap="round" stroke-linejoin="round"/>
<path d="M61.4474 182.908H133.222" stroke="#B1B1E5" stroke-width="0.9194" stroke-miterlimit="10" stroke-linecap="round" stroke-linejoin="round"/>
<path d="M69.3079 41.6914H67.9035C67.8204 41.2875 67.6751 40.9326 67.4675 40.6268C67.2636 40.321 67.0144 40.0643 66.72 39.8567C66.4293 39.6452 66.1065 39.4867 65.7516 39.381C65.3967 39.2753 65.0268 39.2224 64.6417 39.2224C63.9395 39.2224 63.3033 39.3998 62.7333 39.7547C62.167 40.1096 61.7158 40.6325 61.3798 41.3233C61.0476 42.0142 60.8815 42.8618 60.8815 43.866C60.8815 44.8702 61.0476 45.7178 61.3798 46.4086C61.7158 47.0995 62.167 47.6224 62.7333 47.9773C63.3033 48.3321 63.9395 48.5096 64.6417 48.5096C65.0268 48.5096 65.3967 48.4567 65.7516 48.351C66.1065 48.2453 66.4293 48.0886 66.72 47.881C67.0144 47.6696 67.2636 47.411 67.4675 47.1052C67.6751 46.7956 67.8204 46.4407 67.9035 46.0405H69.3079C69.2022 46.6333 69.0097 47.1637 68.7303 47.6318C68.4509 48.0999 68.1036 48.4982 67.6883 48.8267C67.273 49.1514 66.8068 49.3986 66.2896 49.5685C65.7761 49.7384 65.2268 49.8234 64.6417 49.8234C63.6526 49.8234 62.7729 49.5817 62.0028 49.0985C61.2326 48.6153 60.6267 47.9282 60.185 47.0372C59.7433 46.1462 59.5224 45.0892 59.5224 43.866C59.5224 42.6428 59.7433 41.5857 60.185 40.6948C60.6267 39.8038 61.2326 39.1167 62.0028 38.6335C62.7729 38.1502 63.6526 37.9086 64.6417 37.9086C65.2268 37.9086 65.7761 37.9936 66.2896 38.1634C66.8068 38.3333 67.273 38.5825 67.6883 38.9109C68.1036 39.2356 68.4509 39.632 68.7303 40.1002C69.0097 40.5645 69.2022 41.0949 69.3079 41.6914ZM71.5773 49.6648V38.0672H72.9817V43.2317H79.1656V38.0672H80.57V49.6648H79.1656V44.4776H72.9817V49.6648H71.5773ZM83.3816 49.6648V38.0672H90.381V39.313H84.786V43.2317H90.0185V44.4776H84.786V48.419H90.4716V49.6648H83.3816ZM102.245 41.6914H100.84C100.757 41.2875 100.612 40.9326 100.404 40.6268C100.2 40.321 99.9513 40.0643 99.6568 39.8567C99.3661 39.6452 99.0433 39.4867 98.6884 39.381C98.3336 39.2753 97.9636 39.2224 97.5785 39.2224C96.8763 39.2224 96.2402 39.3998 95.6701 39.7547C95.1038 40.1096 94.6527 40.6325 94.3167 41.3233C93.9845 42.0142 93.8184 42.8618 93.8184 43.866C93.8184 44.8702 93.9845 45.7178 94.3167 46.4086C94.6527 47.0995 95.1038 47.6224 95.6701 47.9773C96.2402 48.3321 96.8763 48.5096 97.5785 48.5096C97.9636 48.5096 98.3336 48.4567 98.6884 48.351C99.0433 48.2453 99.3661 48.0886 99.6568 47.881C99.9513 47.6696 100.2 47.411 100.404 47.1052C100.612 46.7956 100.757 46.4407 100.84 46.0405H102.245C102.139 46.6333 101.947 47.1637 101.667 47.6318C101.388 48.0999 101.04 48.4982 100.625 48.8267C100.21 49.1514 99.7436 49.3986 99.2264 49.5685C98.713 49.7384 98.1637 49.8234 97.5785 49.8234C96.5894 49.8234 95.7098 49.5817 94.9396 49.0985C94.1695 48.6153 93.5635 47.9282 93.1218 47.0372C92.6801 46.1462 92.4593 45.0892 92.4593 43.866C92.4593 42.6428 92.6801 41.5857 93.1218 40.6948C93.5635 39.8038 94.1695 39.1167 94.9396 38.6335C95.7098 38.1502 96.5894 37.9086 97.5785 37.9086C98.1637 37.9086 98.713 37.9936 99.2264 38.1634C99.7436 38.3333 100.21 38.5825 100.625 38.9109C101.04 39.2356 101.388 39.632 101.667 40.1002C101.947 40.5645 102.139 41.0949 102.245 41.6914ZM104.514 49.6648V38.0672H105.919V43.8207H106.054L111.264 38.0672H113.099L108.229 43.2997L113.099 49.6648H111.4L107.368 44.2737L105.919 45.9046V49.6648H104.514ZM119.402 49.6648V38.0672H120.806V48.419H126.197V49.6648H119.402ZM129.776 38.0672V49.6648H128.372V38.0672H129.776ZM138.935 40.9666C138.867 40.3927 138.591 39.9473 138.108 39.6301C137.625 39.313 137.032 39.1545 136.33 39.1545C135.816 39.1545 135.367 39.2375 134.982 39.4036C134.601 39.5697 134.302 39.7981 134.087 40.0888C133.876 40.3795 133.77 40.7099 133.77 41.0798C133.77 41.3894 133.844 41.6556 133.991 41.8783C134.142 42.0973 134.335 42.2804 134.569 42.4276C134.803 42.5711 135.048 42.69 135.305 42.7844C135.561 42.875 135.797 42.9486 136.013 43.0052L137.191 43.3223C137.493 43.4016 137.829 43.5111 138.198 43.6508C138.572 43.7905 138.929 43.9811 139.269 44.2227C139.612 44.4606 139.895 44.7664 140.118 45.1401C140.341 45.5139 140.452 45.9726 140.452 46.5162C140.452 47.1429 140.288 47.7092 139.96 48.2151C139.635 48.721 139.159 49.123 138.533 49.4213C137.91 49.7195 137.153 49.8687 136.262 49.8687C135.431 49.8687 134.712 49.7346 134.104 49.4666C133.5 49.1985 133.024 48.8248 132.677 48.3453C132.334 47.8659 132.139 47.309 132.094 46.6748H133.544C133.581 47.1127 133.729 47.4751 133.985 47.7621C134.246 48.0452 134.574 48.2566 134.971 48.3963C135.371 48.5322 135.801 48.6002 136.262 48.6002C136.798 48.6002 137.279 48.5133 137.706 48.3397C138.132 48.1622 138.47 47.9168 138.719 47.6035C138.969 47.2864 139.093 46.9164 139.093 46.4936C139.093 46.1085 138.986 45.7951 138.77 45.5535C138.555 45.3119 138.272 45.1156 137.921 44.9646C137.57 44.8136 137.191 44.6814 136.783 44.5682L135.356 44.1605C134.45 43.9 133.732 43.5281 133.204 43.0449C132.675 42.5616 132.411 41.9293 132.411 41.1478C132.411 40.4984 132.587 39.9322 132.938 39.4489C133.293 38.9619 133.768 38.5844 134.365 38.3163C134.965 38.0445 135.635 37.9086 136.375 37.9086C137.123 37.9086 137.787 38.0426 138.368 38.3107C138.95 38.5749 139.41 38.9374 139.75 39.398C140.094 39.8585 140.275 40.3814 140.294 40.9666H138.935ZM142.127 39.313V38.0672H150.825V39.313H147.178V49.6648H145.774V39.313H142.127Z" fill="#604BAD"/>
<path d="M190.8 110.97C172.509 115.265 166.624 96.0187 165.988 92.2016C165.352 88.3845 166.147 87.2711 164.398 85.9985C162.648 84.7259 161.057 81.8631 161.853 81.068C162.648 80.2729 163.443 81.3864 165.988 82.8562C168.534 84.326 169.646 82.3406 169.646 82.3406V77.0918C170.919 77.5693 172.032 82.4998 171.237 85.6809C170.442 88.862 169.488 96.6553 175.85 99.678C179.477 101.402 182.263 100.435 183.987 99.2898C185.292 98.4248 185.991 97.4511 185.991 97.4511C185.991 97.4511 192.869 101.268 193.664 102.357C194.458 103.443 190.8 110.97 190.8 110.97Z" fill="#FFC9A1"/>
<path opacity="0.13" d="M190.8 110.97C172.509 115.264 166.624 96.0185 165.988 92.2015C165.352 88.3844 166.147 87.271 164.398 85.9984C162.648 84.7258 161.057 81.863 161.853 81.0679C162.33 85.3624 167.261 84.4082 167.128 89.3387C166.994 94.2692 169.806 98.7229 175.055 104.926C180.304 111.129 190.324 107.312 187.78 104.926C186.043 103.297 184.675 100.746 183.987 99.2889C185.292 98.4239 185.991 97.4503 185.991 97.4503C185.991 97.4503 192.869 101.267 193.664 102.356C194.458 103.443 190.8 110.97 190.8 110.97Z" fill="#B20D0D"/>
<path d="M199.523 82.0215C195.788 83.6629 192.868 90.4514 192.868 94.2685C192.868 98.0856 192.868 104.925 192.868 104.925C190.838 103.997 188.631 101.808 187.008 99.963C187.002 99.9568 187.002 99.9568 186.996 99.9505C185.571 98.3278 184.597 96.9729 184.597 96.9729C188.573 92.9966 188.096 92.36 190.641 87.1112C190.844 86.6911 191.067 86.3098 191.316 85.9597C191.316 85.9597 191.322 85.9535 191.335 85.9472C194.166 81.888 199.523 82.0215 199.523 82.0215Z" fill="#35BBB2"/>
<path opacity="0.13" d="M199.523 82.0215C195.788 83.6629 192.868 90.4514 192.868 94.2685C192.868 98.0856 192.868 104.925 192.868 104.925C190.838 103.997 188.631 101.808 187.008 99.963C191.614 104.334 190.004 93.7855 192.06 89.0197C194.006 84.4961 191.595 85.8005 191.334 85.9465C194.166 81.8879 199.523 82.0215 199.523 82.0215Z" fill="#751212"/>
<path d="M201.298 142.622C201.177 142.61 201.056 142.596 200.929 142.578C199.243 142.336 196.87 141.484 194.153 142.202C190.794 143.08 186.913 146.357 183.165 156.142C176.167 174.433 186.976 199.246 186.976 199.246L181.734 200.836C180.633 199.507 179.373 197.419 178.076 194.792C178.069 194.773 178.056 194.754 178.044 194.735C172.012 182.557 164.995 158.947 167.737 146.28C170.314 134.37 181.136 127.009 185.94 124.279C187.358 123.465 188.256 123.058 188.256 123.058C188.459 123.243 188.67 123.42 188.873 123.586C194.695 128.383 200.223 127.212 201.299 127.829C201.381 127.873 201.451 128.001 201.508 128.186C201.693 128.745 201.769 129.891 201.788 131.291C201.845 135.668 201.298 142.622 201.298 142.622Z" fill="#604BAD"/>
<path d="M222.611 155.505C221.339 179.681 215.613 213.242 215.613 213.242C213.068 214.674 210.683 214.196 210.683 214.196C210.683 214.196 210.053 211.435 209.131 206.956C207.527 199.13 205.039 186.062 203.525 173.319C202.31 163.082 201.464 151.484 200.93 142.577C200.631 137.697 200.433 133.632 200.312 131.042C200.223 129.102 200.185 127.988 200.185 127.988C200.63 128.064 201.069 128.128 201.508 128.185C212.878 129.674 222.611 124.807 222.611 124.807C222.611 124.807 223.883 131.329 222.611 155.505Z" fill="#604BAD"/>
<path opacity="0.43" d="M201.298 142.622C201.177 142.61 201.056 142.596 200.929 142.578C199.243 142.336 196.87 141.484 194.153 142.202C191.633 137.704 190.221 131.825 189.476 127.626C189.177 125.947 188.986 124.541 188.872 123.586C194.693 128.383 200.222 127.213 201.297 127.83C201.379 127.874 201.45 128.001 201.507 128.186C201.692 128.746 201.768 129.891 201.787 131.291C201.845 135.668 201.298 142.622 201.298 142.622Z" fill="#270B72"/>
<path opacity="0.23" d="M222.611 155.505C221.339 179.681 215.613 213.242 215.613 213.242C213.068 214.674 210.683 214.196 210.683 214.196C210.683 214.196 210.053 211.435 209.131 206.956C210.002 208.012 211.288 207.649 212.248 205.607C213.59 202.744 213.444 160.117 212.967 147.87C212.535 136.723 210.778 132.951 201.788 131.291C201.318 131.201 200.828 131.119 200.312 131.042C199.861 130.978 199.396 130.909 198.912 130.851C194.618 130.317 191.59 129.032 189.477 127.626C187.74 126.468 186.627 125.24 185.94 124.279C187.358 123.465 188.256 123.058 188.256 123.058C188.459 123.243 188.67 123.42 188.873 123.586C194.695 128.383 200.223 127.212 201.299 127.829C201.381 127.873 201.451 128.001 201.508 128.186C212.878 129.674 222.611 124.807 222.611 124.807C222.611 124.807 223.883 131.329 222.611 155.505Z" fill="#44002C"/>
<path d="M236.714 165.791H232.472V180.212H236.714V165.791Z" fill="#8080CE"/>
<path d="M213.812 124.33C199.261 126.424 191.964 123.586 189.636 118.713C188.821 117.008 188.962 115.175 189.483 113.247V113.241C190.456 109.666 192.74 105.785 192.6 101.853C192.435 97.056 191.13 86.1127 198.339 81.6403C200.216 80.4764 202.665 79.7511 205.859 79.6875C223.775 79.3186 222.076 92.5199 222.076 106.727C222.077 117.122 230.004 121.996 213.812 124.33Z" fill="#35BBB2"/>
<path opacity="0.13" d="M213.812 124.33C199.261 126.424 191.964 123.586 189.636 118.713C188.821 117.008 188.962 115.175 189.483 113.247C189.336 116.269 189.158 117.217 195.934 120.494C202.71 123.777 213.405 121.938 213.945 106.809C214.487 91.6798 211.242 89.5229 203.321 87.9008C197.601 86.73 197.791 83.4028 198.339 81.6403C200.216 80.4764 202.665 79.7511 205.859 79.6875C223.775 79.3186 222.076 92.5199 222.076 106.727C222.077 117.122 230.004 121.996 213.812 124.33Z" fill="#751212"/>
<path d="M206.641 78.4169C215.383 79.0639 215.082 86.9001 206.071 87.3243C197.375 87.7333 196.609 77.6744 206.641 78.4169Z" fill="white"/>
<path d="M232.95 59.5952C230.405 64.0489 226.906 62.6234 226.906 62.6234C226.906 62.6234 225.633 64.844 222.93 64.844C220.468 64.844 213.399 63.5271 214.303 59.9322C214.303 59.926 214.303 59.926 214.309 59.9197C214.398 59.5696 214.563 59.1945 214.818 58.8001C217.681 54.3464 212.82 51.9417 213.228 49.0975C213.635 46.2534 207.693 47.9841 206.643 45.7573C205.593 43.5304 204.003 47.5066 198.595 48.1433C193.187 48.7792 193.346 45.4396 193.346 45.4396C184.757 41.1451 185.552 32.2384 189.37 29.534C191.399 28.096 194.243 27.5106 197.246 28.2677C199.887 28.923 202.654 30.6156 205.116 33.6694C205.116 33.6694 204.798 28.8981 212.592 29.3749C220.386 29.8516 225.157 39.8725 225.157 39.8725C225.157 39.8725 226.271 35.4188 230.406 37.4865C234.541 39.5542 234.541 46.8707 231.36 50.6878C231.359 50.6878 235.494 55.1415 232.95 59.5952Z" fill="#C66A66"/>
<path opacity="0.36" d="M232.95 59.5952C230.405 64.0489 226.906 62.6234 226.906 62.6234C226.906 62.6234 225.633 64.844 222.93 64.844C220.468 64.844 213.4 63.5271 214.303 59.9322C214.303 59.926 214.303 59.926 214.309 59.9197C214.938 58.6029 215.791 58.2783 216.567 59.9135C219.011 65.0606 222.077 52.788 222.077 52.788C222.077 52.788 222.949 60.5308 226.537 58.9087C230.125 57.2867 227.269 52.9665 227.269 52.9665C230.151 51.7071 229.972 46.3053 227.809 42.7042C225.646 39.0968 222.076 42.7042 222.076 42.7042C220.486 36.0367 214.664 32.2577 210.205 31.5387C205.738 30.8135 204.936 36.9405 204.936 36.9405C203.371 32.4044 197.6 28.5043 197.245 28.269C199.885 28.9244 202.653 30.617 205.115 33.6708C205.115 33.6708 204.797 28.8995 212.591 29.3762C220.385 29.853 225.156 39.8739 225.156 39.8739C225.156 39.8739 226.269 35.4202 230.405 37.4879C234.54 39.5556 234.54 46.8721 231.359 50.6891C231.359 50.6878 235.494 55.1415 232.95 59.5952Z" fill="#751212"/>
<path d="M220.702 71.2062C216.885 71.6837 216.408 69.2977 215.453 69.616C214.499 69.9343 212.75 71.2062 211.954 72.638C211.324 73.777 210.688 79.6362 210.458 81.9966C210.395 82.6325 210.013 83.2055 209.447 83.4982C206.927 84.7964 204.904 84.7009 203.594 84.3507C202.652 84.0961 202.042 83.1799 202.188 82.2132C202.429 80.6416 202.716 77.9442 202.411 75.1831C201.984 71.3211 193.064 75.8191 189.769 69.4762C189.502 68.9669 189.273 68.3884 189.088 67.7268C189.018 67.4659 188.948 67.1988 188.891 66.9123C188.413 64.6031 188.395 62.2171 188.649 59.9142C189.222 54.646 191.213 49.8047 192.41 47.2789C192.963 46.1143 193.345 45.4403 193.345 45.4403C203.296 48.2394 208.385 41.0059 208.608 40.6814C208.5 40.9167 206.96 44.3905 209.728 46.2354C212.521 48.0996 215.918 44.6638 216.084 44.4922C216.02 44.677 214.678 48.5259 215.454 51.1659C216.249 53.8695 219.271 51.961 219.271 51.961C219.271 54.1878 217.522 58.1641 216.567 59.9135C215.613 61.6628 217.363 63.8897 219.271 62.1403C221.18 60.3909 223.247 61.3452 224.361 63.7312C225.474 66.1165 224.52 70.7287 220.702 71.2062Z" fill="#FFC9A1"/>
<path d="M211.319 69.8279C214.071 69.8279 216.302 67.5966 216.302 64.8441C216.302 62.0917 214.071 59.8604 211.319 59.8604C208.566 59.8604 206.335 62.0917 206.335 64.8441C206.335 67.5966 208.566 69.8279 211.319 69.8279Z" fill="#F98C8C"/>
<path opacity="0.13" d="M220.702 71.2064C216.885 71.6838 216.408 69.2978 215.453 69.6161C214.499 69.9345 212.75 71.2064 211.954 72.6381C211.324 73.7771 210.688 79.6363 210.458 81.9967C210.395 82.6327 210.013 83.2056 209.447 83.4984C206.927 84.7966 204.904 84.7011 203.594 84.3509C202.652 84.0962 202.042 83.18 202.188 82.2133C202.429 80.6418 202.716 77.9444 202.411 75.1833C201.984 71.3212 193.064 75.8192 189.769 69.4764C189.502 68.9671 189.273 68.3885 189.088 67.727C190.475 70.8064 194.299 71.6845 203.136 69.9345C214.04 67.7775 211.317 57.2224 211.317 57.2224C206.533 56.4398 210.777 50.0838 210.777 50.0838C203.467 51.5217 204.574 45.6619 204.574 45.6619C198.67 49.4921 194.432 48.3344 192.409 47.2777C192.963 46.1131 193.345 45.4391 193.345 45.4391C203.295 48.2382 208.385 41.0047 208.607 40.6802C208.499 40.9155 206.96 44.3893 209.727 46.2342C212.52 48.0984 215.918 44.6626 216.083 44.491C216.019 44.6758 214.677 48.5247 215.453 51.1647C216.248 53.8683 219.27 51.9598 219.27 51.9598C219.27 54.1866 217.521 58.1629 216.567 59.9122C215.612 61.6616 217.362 63.8885 219.27 62.1391C221.179 60.3897 223.247 61.344 224.36 63.73C225.474 66.1167 224.52 70.7289 220.702 71.2064Z" fill="#B20D0D"/>
<path d="M220.193 64.5396C223.143 63.7272 222.229 68.8203 220.193 68.502C218.158 68.1843 218.412 65.0309 220.193 64.5396Z" fill="#F98C8C"/>
<path d="M199.23 54.0281C200.355 54.0468 198.594 56.5733 198.594 59.5953C198.594 62.6172 199.6 62.2117 197.322 62.6221C194.405 63.1473 194.682 62.0608 195.095 60.5495C195.571 58.8001 198.435 54.015 199.23 54.0281Z" fill="#D46463"/>
<path d="M193.53 55.7554C193.348 56.5823 192.831 57.1705 192.375 57.0702C191.919 56.9699 191.697 56.2183 191.878 55.3921C192.06 54.5658 192.577 53.977 193.033 54.0773C193.489 54.1776 193.711 54.9291 193.53 55.7554Z" fill="#352623"/>
<path d="M211.6 56.4951C211.418 57.3214 210.901 57.9103 210.445 57.8099C209.989 57.7096 209.767 56.9581 209.948 56.1318C210.13 55.3056 210.647 54.7167 211.103 54.817C211.56 54.9174 211.782 55.6689 211.6 56.4951Z" fill="#352623"/>
<path d="M192.919 64.8441C192.919 66.9498 191.615 68.7504 189.77 69.4756C189.401 68.7698 189.102 67.9235 188.892 66.9118C188.414 64.6026 188.395 62.2166 188.65 59.9136C191.067 60.2568 192.919 62.3307 192.919 64.8441Z" fill="#F98C8C"/>
<path d="M204.599 71.1101C211.479 69.5566 212.698 61.4304 207.819 61.4505C203.401 61.4685 204.824 64.2115 199.623 64.2115C194.354 64.2115 193.964 69.2562 196.501 70.7198C199.038 72.1841 201.575 71.7931 204.599 71.1101Z" fill="white"/>
<g opacity="0.32">
<path d="M199.918 64.208C199.918 64.208 199.14 69.1863 199.918 71.7093" stroke="black" stroke-width="0.846" stroke-miterlimit="10" stroke-linecap="round" stroke-linejoin="round"/>
<path d="M203.81 63.0012C203.81 63.0012 206.362 66.0654 207.334 70.0029" stroke="black" stroke-width="0.846" stroke-miterlimit="10" stroke-linecap="round" stroke-linejoin="round"/>
</g>
<path d="M190.164 118.605C190.164 118.605 186.824 118.127 186.983 121.786C187.142 125.444 195.89 130.852 210.682 129.261C225.474 127.671 225.474 123.377 224.361 121.627C223.247 119.877 220.385 120.672 219.271 121.149C218.158 121.627 202.73 128.784 190.164 118.605Z" fill="white"/>
<path d="M181.416 203.222C181.416 203.222 183.325 208.152 182.848 210.22C182.37 212.288 180.462 214.674 181.416 215.628C182.37 216.582 190.005 214.515 190.959 212.606C191.914 210.698 188.573 200.836 188.573 200.836L181.416 203.222Z" fill="#30307F"/>
<path d="M209.005 216.085C209.005 216.085 209.53 221.346 208.518 223.212C207.507 225.077 205.031 226.868 205.697 228.042C206.362 229.216 214.272 229.258 215.7 227.674C217.129 226.088 216.539 215.694 216.539 215.694L209.005 216.085Z" fill="#30307F"/>
<path d="M198.569 229.466H170.753C169.436 229.466 168.552 228.225 169.092 227.118L173.985 217.085C174.277 216.487 174.933 216.099 175.652 216.099H194.509C195.273 216.099 195.953 216.531 196.221 217.186L200.28 227.22C200.719 228.308 199.841 229.466 198.569 229.466Z" fill="#753E3E"/>
<path d="M230.138 178.301H221.867V192.298H230.138V178.301Z" fill="#B5BFC6"/>
<path d="M233.319 68.0251H218.266V181.699H233.319V68.0251Z" fill="#30307F"/>
<path d="M233.319 58.3926H218.266V69.2971H233.319V58.3926Z" fill="#8080CE"/>
<path d="M226.536 40.0317H225.156V48.3025H226.536V40.0317Z" fill="#30307F"/>
<path d="M233.319 58.3925H218.266C218.266 58.3925 219.322 53.3921 223.177 45.331C223.177 45.331 224.1 45.4389 225.156 45.5026C225.366 45.522 225.576 45.5344 225.792 45.5469C226.046 45.5531 226.294 45.5663 226.536 45.5593C227.351 45.5718 228.044 45.5213 228.229 45.3303C228.763 44.803 231.626 51.9416 233.319 58.3925Z" fill="#B5BFC6"/>
<path d="M231.626 190.179V205.874C231.626 209.036 229.062 211.601 225.9 211.601H225.792C222.681 211.543 220.175 208.999 220.175 205.874V190.179H231.626Z" fill="#30307F"/>
<path opacity="0.23" d="M233.319 58.3926V181.698H230.138V190.178H231.626V205.874C231.626 209.035 229.062 211.6 225.9 211.6H225.792V40.0317H226.537V45.5608C227.352 45.5733 228.045 45.5228 228.23 45.3318C228.763 44.8031 231.626 51.9418 233.319 58.3926Z" fill="#44002C"/>
<path d="M233.777 128.039C231.327 126.862 230.424 123.274 230.398 119.571C230.392 119.565 230.392 119.559 230.392 119.559C230.373 116.931 230.793 114.246 231.41 112.35C232.899 107.789 234.49 103.972 233.872 101.745C233.255 99.518 233.427 99.518 232.364 98.354C231.308 97.1832 227.275 98.6723 226.855 97.6094C226.428 96.5472 230.456 96.7631 230.672 95.9106C230.881 95.0642 225.366 95.1729 225.9 93.7924C226.428 92.4118 230.138 94.537 230.138 93.7924C230.138 93.0478 224.628 92.0935 225.582 90.5033C226.536 88.9124 231.518 92.8381 231.2 91.9918C230.881 91.1392 227.084 87.7415 227.911 86.5838C228.05 86.3866 228.248 86.3291 228.49 86.3928C229.158 86.5457 230.157 87.5824 231.092 88.9124C232.364 90.7192 233.745 91.6735 232.899 88.8106C232.046 85.9478 233.217 83.5044 233.217 83.5044C233.217 83.5044 233.319 85.6295 235.018 88.4923C236.716 91.3551 238.199 92.0935 238.517 95.1729C238.835 98.2461 239.999 100.899 241.698 105.88C243.396 110.861 240.775 131.392 233.777 128.039Z" fill="#FFC9A1"/>
<path d="M239.259 180.848H236.078V141.296C236.078 140.418 236.79 139.706 237.668 139.706C238.546 139.706 239.259 140.418 239.259 141.296V180.848Z" fill="#30307F"/>
<path d="M208.427 213.108L216.828 212.793C217.372 212.772 217.812 213.229 217.773 213.771L217.612 215.986C217.578 216.449 217.203 216.813 216.739 216.832L208.975 217.152C208.531 217.17 208.137 216.865 208.044 216.431L207.569 214.212C207.45 213.658 207.861 213.13 208.427 213.108Z" fill="white"/>
<path opacity="0.13" d="M233.777 128.04C231.327 126.863 230.424 123.275 230.398 119.572C230.482 119.89 232.281 126.609 235.654 122.072C239.108 117.427 238.675 107.947 237.67 103.335C236.658 98.7224 237.562 97.9273 233.108 92.5193C230.805 89.7264 229.355 87.6967 228.489 86.3923C229.157 86.5453 230.156 87.5819 231.091 88.9119C232.364 90.7187 233.744 91.673 232.898 88.8102C232.045 85.9474 233.216 83.5039 233.216 83.5039C233.216 83.5039 233.318 85.629 235.017 88.4918C236.716 91.3547 238.198 92.093 238.516 95.1724C238.835 98.2456 239.999 100.899 241.697 105.88C243.396 110.861 240.775 131.392 233.777 128.04Z" fill="#B20D0D"/>
<path opacity="0.23" d="M200.929 142.577C199.243 142.336 196.87 141.483 194.153 142.201C190.794 143.079 186.912 146.356 183.165 156.141C176.167 174.433 186.976 199.245 186.976 199.245L181.734 200.835C180.633 199.506 179.373 197.419 178.076 194.791C180.43 198.787 183.458 196.471 178.795 182.385C174.099 168.23 178.235 147.393 186.983 141.508C195.731 135.623 200.929 142.577 200.929 142.577Z" fill="#44002C"/>
<path d="M180.067 200.507L188.079 197.963C188.597 197.799 189.144 198.121 189.25 198.655L189.685 200.832C189.777 201.287 189.512 201.738 189.069 201.88L181.671 204.258C181.248 204.394 180.788 204.205 180.582 203.811L179.532 201.799C179.271 201.297 179.525 200.679 180.067 200.507Z" fill="white"/>
<path opacity="0.23" d="M198.569 229.466H170.753L190.665 225.653C192.886 225.228 194.236 222.958 193.549 220.804C193.156 219.574 192.163 218.63 190.914 218.302L182.529 216.099H194.509C195.273 216.099 195.953 216.532 196.221 217.187L200.28 227.221C200.719 228.308 199.841 229.466 198.569 229.466Z" fill="#2B001E"/>
<path d="M70.6184 220.088C73.6722 224.675 70.4087 230.649 54.2291 232.278C54.2229 232.278 54.2229 232.278 54.2166 232.278C50.8507 232.615 46.9188 232.768 42.3703 232.678C15.9608 232.163 12.6399 220.826 17.0742 215.933C21.5023 211.041 18.4292 204.952 18.4292 204.952C41.715 216.652 72.2342 207.173 72.8259 206.988C72.7048 207.141 71.3118 208.986 70.3382 211.46C69.3264 214.044 68.7666 217.32 70.6184 220.088Z" fill="#753E3E"/>
<path opacity="0.23" d="M54.2166 232.278C50.8507 232.615 46.9188 232.768 42.3703 232.678C15.9608 232.163 12.6399 220.826 17.0742 215.933C21.5023 211.041 18.4292 204.952 18.4292 204.952C41.715 216.652 72.2342 207.173 72.8259 206.988C72.7048 207.141 71.3118 208.986 70.3382 211.46C66.2602 213.191 58.0212 215.748 44.8386 215.869C24.8551 216.054 35.0219 221.563 29.4043 224.324C23.7922 227.08 38.4321 233.022 54.2166 232.278Z" fill="#2B001E"/>
<path d="M77.0126 205.633C73.6917 209.819 62.3989 213.223 44.2408 212.74C4.99267 211.696 3.69447 190.224 46.1238 192.075C53.625 192.406 59.7389 193.22 64.542 194.346C76.2742 197.095 80.1363 201.708 77.0126 205.633Z" fill="#FE9A5C"/>
<path opacity="0.23" d="M77.0126 205.633C73.6917 209.819 62.3989 213.223 44.2408 212.74C4.99267 211.696 3.69447 190.224 46.1238 192.075C53.625 192.406 59.7389 193.22 64.542 194.346C65.369 195.613 66.7115 196.548 68.7535 196.968C68.7535 196.968 79.9826 198.45 74.1553 203.75C68.3273 209.056 45.2138 209.056 42.2423 209.266C39.2709 209.476 39.6086 212.237 52.8479 211.601C66.0873 210.965 72.9464 207.319 76.9987 205.639C77.0056 205.639 77.0056 205.633 77.0126 205.633Z" fill="#2B001E"/>
<path d="M74.156 201.854C73.8439 202.636 71.9229 204.067 67.9086 205.328H67.9024C64.0978 206.524 58.4164 207.567 50.4446 207.771C49.9927 207.777 49.5346 207.79 49.0641 207.79H49.0578L48.5298 207.797C48.2371 207.803 47.9382 207.803 47.6392 207.803C47.4863 207.803 47.3271 207.803 47.1687 207.797C47.0669 207.803 46.959 207.803 46.8503 207.797C46.6594 207.797 46.4684 207.797 46.2711 207.79C45.6352 207.784 44.9861 207.771 44.3432 207.759C42.9814 207.721 41.6901 207.663 40.4556 207.581C39.7878 207.536 39.1387 207.485 38.509 207.428C37.9492 207.377 37.4018 207.326 36.8676 207.269C36.7534 207.256 36.6385 207.243 36.5306 207.231C32.4907 206.766 29.2459 206.067 26.682 205.278C20.7017 203.439 18.4175 201.123 18.4306 200.264C18.4368 199.857 19.0479 199.106 20.5108 198.286C22.6483 197.077 26.5997 195.722 33.1141 195.092C33.3557 195.067 33.5979 195.048 33.8456 195.022C34.2594 194.99 34.6788 194.959 35.1057 194.933C36.9188 194.806 38.9041 194.736 41.0798 194.736C42.2056 194.736 43.3765 194.755 44.5598 194.793C45.0242 194.806 45.4885 194.825 45.9535 194.844C46.7168 194.876 47.4676 194.914 48.1928 194.966C48.4281 194.972 48.6572 194.985 48.8862 195.004C49.3187 195.029 49.745 195.061 50.1588 195.093C53.5053 195.334 56.4193 195.685 58.9451 196.091C59.3271 196.149 59.6959 196.213 60.0586 196.276C60.3513 196.327 60.6378 196.378 60.9173 196.435C64.1303 197.04 66.6305 197.746 68.5522 198.446C72.3872 199.843 73.9138 201.243 74.156 201.854Z" fill="#753E3E"/>
<path d="M66.133 173.339H66.1205C65.3891 173.02 64.5171 172.97 63.6141 173.078C62.3159 173.237 60.9547 173.733 59.8413 174.255C55.8201 176.145 57.6781 170.094 63.3975 168.014C69.1238 165.934 72.8329 159.501 69.8933 155.906C66.9537 152.318 59.9935 161.206 57.9833 158.553C56.2207 156.231 61.4889 143.57 56.6283 139.352C56.6283 139.352 56.6221 139.352 56.6159 139.346C55.9412 138.761 55.0699 138.341 53.9627 138.131C53.8036 138.099 53.6507 138.081 53.5046 138.061C44.9474 137.005 48.0205 153.108 44.2222 155.15C40.3539 157.23 38.9609 149.195 33.3937 152.739C32.2485 153.47 31.4084 154.603 30.8555 156.002C30.614 156.607 30.4292 157.255 30.2957 157.949C30.1939 158.483 30.1178 159.036 30.0728 159.616C29.659 164.947 31.7779 171.812 35.7161 176.145C39.9664 180.821 35.0289 179.517 32.198 181.616C31.6887 181.991 31.2437 182.475 30.9385 183.13C30.9385 183.13 30.9385 183.13 30.9385 183.137C30.468 184.136 30.3088 185.523 30.7032 187.489C31.2119 190.053 32.0582 192.616 33.1149 195.092C33.5667 196.161 34.0629 197.211 34.5847 198.235C35.0684 199.189 35.577 200.125 36.105 201.034V201.04C37.1229 202.796 38.2045 204.463 39.2923 205.996C39.3242 206.034 39.3498 206.079 39.3816 206.117C39.5595 206.372 39.7442 206.62 39.929 206.868C40.1006 207.11 40.2791 207.346 40.457 207.581C41.6915 207.664 42.9828 207.721 44.3446 207.759C44.9681 207.771 45.6041 207.784 46.2213 207.791H46.2726C46.4698 207.797 46.6608 207.797 46.8518 207.797C46.9597 207.803 47.0684 207.803 47.1701 207.797C47.3292 207.803 47.4884 207.803 47.6406 207.803C47.9396 207.803 48.2385 207.803 48.5312 207.797L49.0592 207.791H49.0655C49.536 207.791 49.9941 207.778 50.446 207.771C51.0377 207.141 51.6612 206.473 52.304 205.761C53.7039 204.227 55.1987 202.516 56.6878 200.677V200.671C57.8331 199.265 58.9659 197.795 60.06 196.275C61.1672 194.735 62.2169 193.145 63.165 191.542C63.165 191.535 63.1712 191.535 63.1712 191.529C63.1774 191.529 63.1774 191.523 63.1774 191.523C64.6154 189.112 65.8305 186.662 66.6513 184.276C69.1169 177.13 68.1688 174.217 66.133 173.339Z" fill="#8080CE"/>
<path opacity="0.64" d="M45.0678 212.937C44.9917 213.154 44.9149 213.37 44.8387 213.586C44.8962 213.351 44.9529 213.116 45.0104 212.88C45.0297 212.899 45.0484 212.918 45.0678 212.937Z" fill="#30307F"/>
<path opacity="0.52" d="M54.2105 157.28C54.1662 160.493 54.0326 163.706 53.8541 166.906C53.7842 168.515 53.6313 170.113 53.5039 171.709C53.3766 173.312 53.2555 174.909 53.0652 176.5C52.7531 179.605 52.3524 182.697 51.8625 185.763C51.8113 186.125 51.7476 186.488 51.6909 186.851C51.2453 189.612 50.7304 192.36 50.1574 195.09C50.1381 195.204 50.1131 195.325 50.0875 195.44L49.0253 200.084C48.7008 201.389 48.3257 202.68 47.9693 203.971C47.9057 204.2 47.842 204.43 47.7783 204.659L47.1867 206.733L47.1292 206.93C47.04 207.222 46.9514 207.509 46.849 207.795C46.658 207.795 46.467 207.795 46.2698 207.789C46.3653 207.426 46.4608 207.063 46.5431 206.694L47.0268 204.372C47.0967 204.041 47.1666 203.717 47.2434 203.392C47.269 203.239 47.3071 203.093 47.3389 202.947C47.3389 202.94 47.3389 202.94 47.3389 202.934C47.5742 201.872 47.8095 200.815 48.0136 199.747L48.8724 195.083C48.8786 195.058 48.8848 195.026 48.8848 195C49.19 193.48 49.3872 191.934 49.6419 190.401C49.7055 189.994 49.7692 189.586 49.8329 189.179C49.8329 189.173 49.8329 189.173 49.8329 189.173C49.909 188.683 49.992 188.193 50.0682 187.703C50.1699 187.042 50.2654 186.373 50.3415 185.699L50.965 180.991L51.4805 176.251C51.6778 174.68 51.8113 173.096 51.9511 171.512C52.0978 169.928 52.2438 168.344 52.3455 166.759C52.4597 165.169 52.6064 163.584 52.6888 161.994L52.969 157.223C53.2742 151.026 53.4652 144.823 53.497 138.588C53.5033 138.41 53.5032 138.238 53.5032 138.06C53.5226 138.231 53.5351 138.41 53.5545 138.582C54.1468 144.778 54.2928 151.039 54.2105 157.28Z" fill="#30307F"/>
<path opacity="0.23" d="M45.0104 212.879C45.0297 212.899 45.0484 212.917 45.0678 212.937C44.9917 213.153 44.9149 213.369 44.8387 213.586C44.8962 213.35 44.9529 213.115 45.0104 212.879Z" fill="#44002C"/>
<path opacity="0.26" d="M56.6152 139.345C56.456 139.244 55.0118 138.385 53.5552 138.582C53.5358 138.582 53.5171 138.588 53.4977 138.588C52.1234 138.805 50.7553 140.007 50.4758 143.735C49.8779 151.688 51.1505 158.369 45.5833 161.072C40.0162 163.776 41.4479 174.115 45.5833 179.681C49.7187 185.249 36.04 182.703 40.6528 192.883C42.8603 197.756 44.7564 201.255 47.2441 203.393C47.4794 203.602 47.7216 203.793 47.9693 203.972C49.2225 204.882 50.6349 205.48 52.302 205.759C51.6591 206.472 51.0356 207.14 50.4439 207.77C49.9921 207.776 49.5339 207.789 49.0634 207.789H49.0572L48.5292 207.795C48.2365 207.802 47.9375 207.802 47.6386 207.802C47.4856 207.802 47.3265 207.802 47.168 207.795C47.0663 207.802 46.9583 207.802 46.8497 207.795C46.6587 207.795 46.4677 207.795 46.2705 207.789H46.2193C45.602 207.783 44.9661 207.77 44.3426 207.757C42.9807 207.719 41.6894 207.662 40.4549 207.579C40.2771 207.344 40.0985 207.109 39.9269 206.867C39.7421 206.618 39.5581 206.37 39.3795 206.116C39.3477 206.078 39.3221 206.033 39.2903 205.995C38.2024 204.461 37.1209 202.794 36.1029 201.039V201.032C35.5749 200.122 35.0656 199.188 34.5826 198.233C34.0608 197.209 33.5647 196.159 33.1128 195.09C32.0568 192.615 31.2105 190.051 30.7012 187.487C30.3067 185.521 30.4659 184.134 30.9365 183.135C30.9365 183.129 30.9365 183.129 30.9365 183.129C31.2416 182.474 31.6873 181.99 32.1959 181.615C35.0269 179.515 39.9643 180.82 35.714 176.143C31.7758 171.811 29.6569 164.946 30.0708 159.614C30.115 159.035 30.1919 158.481 30.2936 157.947C30.4271 157.254 30.6119 156.605 30.8534 156C31.407 154.601 32.2464 153.468 33.3917 152.737C38.9588 149.193 40.3518 157.229 44.2201 155.149C48.0185 153.107 44.9453 137.004 53.5026 138.06C53.6486 138.079 53.8015 138.098 53.9607 138.13C55.0693 138.34 55.9405 138.76 56.6152 139.345Z" fill="#30307F"/>
<path opacity="0.26" d="M66.6485 184.275C65.8278 186.661 64.6126 189.11 63.1746 191.522C63.1746 191.522 63.1746 191.528 63.1684 191.528C63.1684 191.534 63.1622 191.534 63.1622 191.54C62.2141 193.144 61.1644 194.734 60.0572 196.274C58.9631 197.794 57.8303 199.264 56.6851 200.67V200.676C54.5025 203.367 52.3144 205.791 50.4439 207.77C49.992 207.776 49.5339 207.789 49.0634 207.789H49.0571L48.5291 207.795C48.2364 207.802 47.9375 207.802 47.6385 207.802C47.4856 207.802 47.3264 207.802 47.168 207.795C47.0662 207.802 46.9583 207.802 46.8497 207.795C46.6587 207.795 46.4677 207.795 46.2704 207.789H46.2192C45.2906 197.718 47.5555 191.152 50.0681 187.704C50.666 186.877 51.2771 186.234 51.8625 185.764C53.5101 184.421 54.9544 184.453 55.2851 185.725C56.2394 189.383 56.8753 190.179 59.5797 180.953C60.9602 176.239 62.4681 174.069 63.6133 173.077C64.5171 172.969 65.3883 173.02 66.1198 173.338H66.1322C68.1688 174.217 69.1168 177.13 66.6485 184.275Z" fill="#30307F"/>
<path d="M80.2574 190.841C80.0027 194.422 72.6862 197.215 68.5508 198.444C67.609 198.723 66.8263 198.921 66.3371 199.029C63.7096 199.595 65.2555 200.537 68.0422 201.11C68.8567 201.275 69.2449 202.293 68.8567 203.584C68.6913 204.132 68.3799 204.73 67.9086 205.328H67.9024C64.0978 206.524 58.4165 207.567 50.4446 207.771C49.9927 207.777 49.5346 207.79 49.0641 207.79H49.0579L48.5299 207.797C48.2371 207.803 47.9382 207.803 47.6393 207.803C47.4863 207.803 47.3272 207.803 47.1687 207.797C47.1749 207.478 47.1812 207.122 47.1881 206.734C47.2137 205.691 47.2517 204.4 47.3348 202.987C47.3348 202.975 47.341 202.962 47.341 202.949C47.341 202.943 47.341 202.943 47.341 202.937C47.4808 200.455 47.7355 197.599 48.1936 194.965C48.5818 192.757 49.1098 190.708 49.835 189.182C49.835 189.176 49.835 189.176 49.835 189.176C50.3505 188.094 50.9671 187.28 51.693 186.853C52.0618 186.637 52.4563 186.522 52.8825 186.522C56.91 186.522 54.8928 191.275 56.5979 191.275C58.2967 191.275 61.1914 174.664 65.2569 173.499C65.5752 173.404 65.8617 173.353 66.1219 173.34H66.1343C69.3535 173.117 68.0491 178.214 70.0531 178.035C72.2163 177.844 76.0846 169.338 80.2581 173.308C81.0213 174.033 81.3459 174.842 81.3653 175.694C81.4864 179.524 75.6009 184.213 76.2375 185.6C77.0126 187.304 80.5688 186.438 80.2574 190.841Z" fill="#8080CE"/>
<path opacity="0.52" d="M80.2574 173.307C80.1114 173.548 79.9647 173.79 79.8055 174.026C77.6998 177.392 75.2501 180.426 72.7817 183.397C71.4586 184.988 70.103 186.527 68.7418 188.067C67.3807 189.6 65.9808 191.089 64.6002 192.597C63.3788 193.876 62.1568 195.167 60.9167 196.433C60.7389 196.624 60.5541 196.809 60.3693 196.999C59.1417 198.234 57.9266 199.468 56.6858 200.67V200.677C56.4761 200.88 56.272 201.077 56.0623 201.281C54.7136 202.598 53.3455 203.902 51.965 205.175C51.0107 206.059 50.0433 206.93 49.0641 207.79H49.0579L48.5299 207.796C49.516 206.625 50.5083 205.474 51.52 204.328C52.7546 202.91 54.0078 201.51 55.261 200.123C56.4699 198.755 57.7107 197.432 58.9445 196.089C59.0905 195.924 59.2435 195.765 59.3895 195.599L63.1622 191.54C63.1622 191.534 63.1685 191.534 63.1685 191.528C63.1747 191.528 63.1747 191.521 63.1747 191.521L63.5505 191.121L67.7371 186.68C69.1494 185.23 70.5237 183.722 71.9423 182.271C74.5318 179.517 77.1531 176.819 79.6789 173.963C79.8754 173.745 80.0664 173.529 80.2574 173.307Z" fill="#30307F"/>
<path opacity="0.26" d="M39.3801 206.117C39.3483 206.079 39.3227 206.034 39.2909 205.995C38.2031 204.462 37.1215 202.795 36.1035 201.039V201.033C35.5755 200.123 35.0662 199.188 34.5832 198.234C34.0614 197.21 33.5653 196.16 33.1134 195.091C32.0574 192.616 31.2111 190.052 30.7018 187.488C30.3073 185.522 30.4665 184.135 30.9371 183.136C30.9371 183.13 30.9371 183.13 30.9371 183.13C31.2422 182.474 31.6879 181.991 32.1965 181.616C35.0275 179.516 39.9649 180.821 35.7146 176.144C31.7765 171.811 29.6576 164.947 30.0714 159.615C30.1157 159.036 30.1925 158.482 30.2942 157.948C30.7461 158.641 31.382 158.896 32.292 158.05C34.8372 155.664 39.4494 155.664 41.517 160.117C43.5847 164.571 42.3571 171.391 40.7219 174.591C39.093 177.792 44.7044 173.465 47.8032 179.115C50.6473 184.301 47.4087 197.489 39.3801 206.117Z" fill="#30307F"/>
<path d="M44.5584 194.792C43.3239 197.986 41.6064 201.695 39.2903 205.995C39.2778 206.021 39.2584 206.053 39.246 206.079C39.0045 206.524 38.7623 206.969 38.5083 207.427C37.9485 207.377 37.4011 207.326 36.8669 207.268C36.7527 207.256 36.6378 207.242 36.5299 207.23C32.49 206.766 29.2452 206.066 26.6813 205.277C24.6711 203.801 22.7175 201.886 21.1778 199.405C20.9426 199.023 20.7135 198.654 20.5101 198.285C15.8785 190.288 17.1317 185.758 20.0962 185.033C23.1881 184.276 23.1881 181.82 20.2492 180.306C17.3096 178.792 12.977 175.579 14.3706 170.279C15.7636 164.985 19.0084 169.522 21.1778 166.691C23.341 163.853 16.3871 154.01 21.948 150.97C23.2649 150.251 24.3341 150.098 25.2115 150.34C28.2909 151.154 29.0673 156.702 30.0721 159.616C30.441 160.678 30.8354 161.391 31.3828 161.391C33.8574 161.391 35.404 154.965 38.9602 158.369C42.5226 161.773 42.0583 169.713 38.9602 174.065C35.8683 178.417 38.655 178.417 42.3641 177.087C45.2968 176.042 50.5332 179.364 44.5584 194.792Z" fill="#8080CE"/>
<path opacity="0.52" d="M36.8669 207.268C36.7527 207.256 36.6379 207.242 36.5299 207.23C36.4088 206.651 36.2815 206.066 36.1542 205.487C35.6455 203.063 35.13 200.645 34.5826 198.234C34.3473 197.159 34.0989 196.09 33.8443 195.021C33.838 195.002 33.838 194.989 33.8318 194.97C32.8962 191.012 31.9489 187.062 30.9372 183.136C30.9372 183.13 30.9372 183.13 30.9372 183.13C30.6825 182.15 30.4285 181.177 30.1677 180.203C29.8556 178.976 29.5317 177.754 29.2009 176.532L28.2017 172.874L27.1962 169.216C26.8461 168.001 26.5091 166.78 26.172 165.558C24.8808 161.022 23.5632 156.493 22.2339 151.943C22.1384 151.619 22.0429 151.294 21.9474 150.97C22.0747 151.25 22.1958 151.53 22.3162 151.816C24.1929 156.104 25.8281 160.532 27.336 165.024C28.1442 167.416 28.8881 169.834 29.6265 172.264C30.0085 173.473 30.3261 174.707 30.6763 175.929C31.0264 177.15 31.3634 178.378 31.688 179.612C31.8596 180.28 32.0312 180.949 32.1973 181.616C32.6554 183.423 33.0817 185.236 33.5017 187.056C33.7944 188.297 34.0359 189.563 34.303 190.816C34.5639 192.07 34.8248 193.323 35.0407 194.595C35.0601 194.71 35.085 194.818 35.1044 194.932C35.4794 196.956 35.8171 198.986 36.1029 201.034V201.04C36.3258 202.567 36.523 204.1 36.6946 205.64C36.7527 206.18 36.8095 206.728 36.8669 207.268Z" fill="#30307F"/>
<path opacity="0.26" d="M39.2467 206.079C39.0052 206.524 38.763 206.969 38.509 207.427C37.9492 207.377 37.4018 207.326 36.8676 207.268C36.7534 207.256 36.6386 207.242 36.5306 207.23C32.4907 206.766 29.2459 206.066 26.6821 205.277C24.6718 203.801 22.7183 201.886 21.1786 199.405C20.9433 199.023 20.7142 198.654 20.5108 198.285C15.8792 190.288 17.1325 185.758 20.097 185.033C23.1888 184.276 23.1888 181.82 20.2499 180.306C17.3103 178.792 12.9777 175.579 14.3714 170.279C15.7644 164.985 19.0092 169.522 21.1786 166.691C23.3418 163.853 16.3879 154.01 21.9488 150.97C23.2657 150.251 24.3348 150.098 25.2122 150.34C24.449 150.41 23.1127 150.703 22.3176 151.816C22.2858 151.854 22.2602 151.898 22.2353 151.943C21.4658 153.127 21.2872 155.169 22.8394 158.688C26.6883 167.429 25.5112 167.753 21.9488 170.935C18.3857 174.116 23.6345 176.819 26.9748 180.478C30.3151 184.136 26.3388 184.613 24.5888 188.43C23.1003 191.675 26.79 202.682 36.1555 205.488C36.3334 205.545 36.5119 205.596 36.6967 205.641C37.5029 205.849 38.3554 205.995 39.2467 206.079Z" fill="#30307F"/>
<path opacity="0.26" d="M81.3639 175.693C81.3127 175.591 80.766 174.509 79.8055 174.026C79.7674 174 79.7225 173.981 79.6782 173.962C78.7557 173.561 77.4956 173.727 75.9628 175.699C72.6225 180 70.5548 183.817 67.5329 182.067C64.5109 180.318 63.2383 181.424 60.0572 190.414C56.8761 199.404 54.8084 191.769 52.5815 193.837C50.9913 195.313 50.1955 201.16 51.5193 204.328C51.6466 204.64 51.7996 204.92 51.965 205.175C52.4992 205.963 53.2438 206.434 54.2299 206.402C58.1805 206.262 65.0009 204.506 68.8567 203.584C68.6913 204.131 68.3799 204.729 67.9086 205.327H67.9024C64.0978 206.523 58.4165 207.566 50.4446 207.77C49.9927 207.777 49.5346 207.79 49.0641 207.79H49.0579L48.5299 207.796C48.2371 207.802 47.9382 207.802 47.6393 207.802C47.4863 207.802 47.3272 207.802 47.1687 207.796C47.1749 207.478 47.1812 207.121 47.1881 206.734C47.2137 205.69 47.2517 204.399 47.3348 202.986C47.3348 202.974 47.341 202.961 47.341 202.948C47.341 202.942 47.341 202.942 47.341 202.936C47.4808 200.454 47.7355 197.598 48.1936 194.964C48.5818 192.757 49.1098 190.708 49.835 189.181C49.835 189.175 49.835 189.175 49.835 189.175C50.3505 188.093 50.9671 187.279 51.693 186.853C52.0618 186.636 52.4563 186.522 52.8825 186.522C56.91 186.522 54.8928 191.274 56.5979 191.274C58.2967 191.274 61.1914 174.663 65.2569 173.498C65.5752 173.403 65.8617 173.352 66.1219 173.339H66.1343C69.3535 173.116 68.0491 178.213 70.0531 178.034C72.2163 177.843 76.0846 169.337 80.2581 173.307C81.0206 174.032 81.3452 174.84 81.3639 175.693Z" fill="#30307F"/>
<path d="M251.421 76.5834L252.248 72.4231L252.88 76.6145L257.162 77.4325L252.832 77.7217L252.053 81.7596L251.518 77.8269L247.431 77.0913L251.421 76.5834Z" fill="#8080CE"/>
<path d="M149.69 210.237L150.509 206.117L151.136 210.268L155.377 211.078L151.088 211.364L150.317 215.363L149.787 211.469L145.739 210.74L149.69 210.237Z" fill="#8080CE"/>
<path d="M179.768 19.2262L180.473 15.6804L181.012 19.2525L184.662 19.9501L180.971 20.1964L180.307 23.6384L179.851 20.2864L176.368 19.6594L179.768 19.2262Z" fill="#8080CE"/>
<path d="M250.831 168.233L251.536 164.687L252.075 168.26L255.725 168.956L252.034 169.203L251.371 172.645L250.914 169.293L247.431 168.666L250.831 168.233Z" fill="#8080CE"/>
<path d="M29.7136 138.573L30.6443 133.894L31.3557 138.608L36.1707 139.528L31.3011 139.852L30.425 144.394L29.8236 139.971L25.2267 139.144L29.7136 138.573Z" fill="#8080CE"/>
<path d="M39.1843 48.0689L40.1268 43.3293L40.8472 48.1048L45.7258 49.0363L40.7918 49.3657L39.9047 53.9668L39.295 49.4861L34.6385 48.6481L39.1843 48.0689Z" fill="#8080CE"/>
</svg>
