<svg width="123" height="105" viewBox="0 0 123 105" fill="none" xmlns="http://www.w3.org/2000/svg">
<g clip-path="url(#clip0_5_690)">
<path opacity="0.42" d="M43.4661 27.3539C67.3781 18.9799 62.6515 -4.98718 93.2364 0.927547C123.821 6.84228 146.766 79.0082 78.4925 96.9236C10.2188 114.839 -11.1857 56.5571 5.28143 36.6089C18.5128 20.58 29.0291 32.4126 43.4661 27.3539Z" fill="#D7B182"/>
<path opacity="0.19" d="M47.4303 96.0801C64.0925 96.0801 77.5999 94.6055 77.5999 92.7865C77.5999 90.9675 64.0925 89.4929 47.4303 89.4929C30.768 89.4929 17.2606 90.9675 17.2606 92.7865C17.2606 94.6055 30.768 96.0801 47.4303 96.0801Z" fill="#18185B"/>
<path d="M69.2873 6.07971H25.5019C21.9072 6.07971 18.9932 9.00657 18.9932 12.617V87.3138C18.9932 90.9243 21.9072 93.8512 25.5019 93.8512H69.2873C72.8819 93.8512 75.796 90.9243 75.796 87.3138V12.617C75.796 9.00657 72.8819 6.07971 69.2873 6.07971Z" fill="#35BBB2"/>
<path opacity="0.13" d="M74.0045 87.647V12.6513C74.0045 10.0724 71.923 7.98181 69.3554 7.98181L25.2725 7.98181C22.7049 7.98181 20.6234 10.0724 20.6234 12.6513L20.6234 87.647C20.6234 90.2259 22.7049 92.3165 25.2725 92.3165H69.3554C71.923 92.3165 74.0045 90.2259 74.0045 87.647Z" fill="#751212"/>
<path opacity="0.13" d="M73.4342 87.6999V12.6015C73.4342 10.3664 71.6303 8.55457 69.405 8.55457L25.2198 8.55457C22.9945 8.55457 21.1906 10.3664 21.1906 12.6015L21.1906 87.6999C21.1906 89.9349 22.9945 91.7468 25.2198 91.7468H69.405C71.6303 91.7468 73.4342 89.9349 73.4342 87.6999Z" fill="#751212"/>
<path d="M72.5787 87.7746V12.5268C72.5787 10.8076 71.1911 9.41382 69.4793 9.41382L25.1454 9.41382C23.4336 9.41382 22.046 10.8076 22.046 12.5268L22.046 87.7746C22.046 89.4939 23.4336 90.8876 25.1454 90.8876H69.4793C71.1911 90.8876 72.5787 89.4939 72.5787 87.7746Z" fill="white"/>
<path d="M39.8087 9.41993L43.6892 5.83997H53.0928L57.2243 9.41993H39.8087Z" fill="#7D8985"/>
<path d="M41.2345 2.40637L43.6892 5.98323H53.0928L55.7986 2.40637H41.2345Z" fill="#9CA7A3"/>
<g opacity="0.42">
<path d="M66.008 26.0186H63.2589C62.2609 26.0186 61.4519 26.8311 61.4519 27.8334V30.5947C61.4519 31.597 62.2609 32.4096 63.2589 32.4096H66.008C67.006 32.4096 67.815 31.597 67.815 30.5947V27.8334C67.815 26.8311 67.006 26.0186 66.008 26.0186Z" fill="#B1B1E5"/>
<path d="M66.008 38.7258H63.2589C62.2609 38.7258 61.4519 39.5384 61.4519 40.5407V43.302C61.4519 44.3043 62.2609 45.1168 63.2589 45.1168H66.008C67.006 45.1168 67.815 44.3043 67.815 43.302V40.5407C67.815 39.5384 67.006 38.7258 66.008 38.7258Z" fill="#B1B1E5"/>
<path d="M66.008 51.4301H63.2589C62.2609 51.4301 61.4519 52.2426 61.4519 53.2449V56.0062C61.4519 57.0085 62.2609 57.8211 63.2589 57.8211H66.008C67.006 57.8211 67.815 57.0085 67.815 56.0062V53.2449C67.815 52.2426 67.006 51.4301 66.008 51.4301Z" fill="#B1B1E5"/>
<path d="M66.008 64.1343H63.2589C62.2609 64.1343 61.4519 64.9468 61.4519 65.9492V68.7104C61.4519 69.7127 62.2609 70.5253 63.2589 70.5253H66.008C67.006 70.5253 67.815 69.7127 67.815 68.7104V65.9492C67.815 64.9468 67.006 64.1343 66.008 64.1343Z" fill="#B1B1E5"/>
<path d="M66.008 77.1281H63.2589C62.2609 77.1281 61.4519 77.9406 61.4519 78.9429V81.7042C61.4519 82.7065 62.2609 83.5191 63.2589 83.5191H66.008C67.006 83.5191 67.815 82.7065 67.815 81.7042V78.9429C67.815 77.9406 67.006 77.1281 66.008 77.1281Z" fill="#B1B1E5"/>
</g>
<path d="M27.2128 27.9269H59.3598" stroke="#B1B1E5" stroke-width="0.950924" stroke-linecap="round" stroke-linejoin="round"/>
<path d="M27.2128 31.1707H59.3598" stroke="#B1B1E5" stroke-width="0.950924" stroke-linecap="round" stroke-linejoin="round"/>
<path d="M27.2128 40.6311H59.3598" stroke="#B1B1E5" stroke-width="0.950924" stroke-linecap="round" stroke-linejoin="round"/>
<path d="M27.2128 43.8749H59.3598" stroke="#B1B1E5" stroke-width="0.950924" stroke-linecap="round" stroke-linejoin="round"/>
<path d="M27.2128 53.3384H59.3598" stroke="#B1B1E5" stroke-width="0.950924" stroke-linecap="round" stroke-linejoin="round"/>
<path d="M27.2128 56.5822H59.3598" stroke="#B1B1E5" stroke-width="0.950924" stroke-linecap="round" stroke-linejoin="round"/>
<path d="M27.2128 66.0426H59.3598" stroke="#B1B1E5" stroke-width="0.950924" stroke-linecap="round" stroke-linejoin="round"/>
<path d="M27.2128 69.2864H59.3598" stroke="#B1B1E5" stroke-width="0.950924" stroke-linecap="round" stroke-linejoin="round"/>
<path d="M27.2128 78.75H59.3598" stroke="#B1B1E5" stroke-width="0.950924" stroke-linecap="round" stroke-linejoin="round"/>
<path d="M27.2128 81.9938H59.3598" stroke="#B1B1E5" stroke-width="0.950924" stroke-linecap="round" stroke-linejoin="round"/>
<path d="M39.4895 20.2814C39.2943 20.381 38.9006 20.4775 38.3985 20.4775C37.2332 20.4775 36.3591 19.7397 36.3591 18.3793C36.3591 17.0189 37.2363 16.2002 38.5163 16.2002C39.0308 16.2002 39.3563 16.3123 39.4957 16.3839L39.3656 16.8197C39.1641 16.7201 38.8759 16.6485 38.5318 16.6485C37.5648 16.6485 36.9201 17.2711 36.9201 18.3606C36.9201 19.3755 37.5028 20.0292 38.507 20.0292C38.8325 20.0292 39.1641 19.9607 39.378 19.858L39.4895 20.2814Z" fill="#604BAD"/>
<path d="M40.6922 16.2655V18.0026H42.6913V16.2655H43.2306V20.4152H42.6913V18.4695H40.6922V20.4152H40.1591V16.2655H40.6922Z" fill="#604BAD"/>
<path d="M46.2957 18.4695H44.6902V19.9669H46.4786V20.4152H44.1541V16.2655H46.3856V16.7138H44.6871V18.0244H46.2926V18.4664L46.2957 18.4695Z" fill="#604BAD"/>
<path d="M50.0585 20.2814C49.8632 20.381 49.4696 20.4775 48.9675 20.4775C47.8021 20.4775 46.9281 19.7397 46.9281 18.3793C46.9281 17.0189 47.8052 16.2002 49.0853 16.2002C49.5998 16.2002 49.9252 16.3123 50.0647 16.3839L49.9345 16.8197C49.7331 16.7201 49.4448 16.6485 49.1008 16.6485C48.1338 16.6485 47.4891 17.2711 47.4891 18.3606C47.4891 19.3755 48.0718 20.0292 49.076 20.0292C49.4014 20.0292 49.7331 19.9607 49.9469 19.858L50.0585 20.2814Z" fill="#604BAD"/>
<path d="M50.728 16.2655H51.261V18.2672H51.2796C51.3912 18.1084 51.4997 17.959 51.6051 17.8251L52.8665 16.2686H53.5298L52.0328 18.0306L53.6445 20.4183H53.0122L51.6516 18.3792L51.258 18.8337V20.4152H50.7249V16.2655H50.728Z" fill="#604BAD"/>
<path d="M55.3491 16.2656H55.8822V19.9638H57.6489V20.4121H55.3491V16.2625V16.2656Z" fill="#604BAD"/>
<path d="M58.7741 16.2655V20.4152H58.241V16.2655H58.7741Z" fill="#604BAD"/>
<path d="M59.6325 19.7646C59.8712 19.9109 60.2214 20.0354 60.5872 20.0354C61.1327 20.0354 61.4519 19.7459 61.4519 19.3288C61.4519 18.9396 61.2318 18.7186 60.6739 18.5038C59.9983 18.2641 59.583 17.9124 59.583 17.3271C59.583 16.6796 60.1161 16.2002 60.9188 16.2002C61.3403 16.2002 61.6472 16.2998 61.8331 16.4025L61.6874 16.8384C61.5542 16.7637 61.2752 16.6422 60.9033 16.6422C60.3392 16.6422 60.1253 16.9816 60.1253 17.2648C60.1253 17.654 60.3764 17.8439 60.9467 18.0649C61.6441 18.3357 62.0005 18.675 62.0005 19.2852C62.0005 19.9265 61.5294 20.4806 60.5531 20.4806C60.1532 20.4806 59.7193 20.3623 59.4993 20.216L59.6325 19.7677V19.7646Z" fill="#604BAD"/>
<path d="M63.513 16.7232H62.2577V16.2687H65.3168V16.7232H64.0553V20.4183H63.516V16.7232H63.513Z" fill="#604BAD"/>
<path d="M85.1501 49.6308C76.9583 51.564 74.3207 42.9036 74.0356 41.1883C73.7504 39.47 74.1069 38.9688 73.3227 38.3991C72.5386 37.8263 71.8257 36.5375 72.1821 36.1795C72.5386 35.8215 72.895 36.3227 74.0356 36.9827C75.1762 37.6426 75.6752 36.7523 75.6752 36.7523V34.3895C76.2455 34.6043 76.7445 36.8208 76.388 38.2528C76.0316 39.6848 75.6039 43.19 78.4553 44.5504C80.0794 45.3255 81.3285 44.8897 82.1002 44.3761C82.6829 43.987 82.9991 43.548 82.9991 43.548C82.9991 43.548 86.0799 45.2664 86.4363 45.7551C86.7927 46.2439 85.1532 49.6308 85.1532 49.6308H85.1501Z" fill="#FFC9A1"/>
<path opacity="0.13" d="M85.1501 49.6308C76.9583 51.564 74.3207 42.9036 74.0356 41.1883C73.7504 39.4699 74.1069 38.9687 73.3227 38.399C72.5386 37.8262 71.8257 36.5374 72.1821 36.1794C72.396 38.1126 74.6028 37.683 74.5439 39.8995C74.485 42.1191 75.7434 44.1207 78.0958 46.9131C80.4452 49.7024 84.9362 47.9871 83.7956 46.9131C83.0177 46.1816 82.404 45.0329 82.0971 44.376C82.6798 43.9869 82.996 43.5479 82.996 43.5479C82.996 43.5479 86.0768 45.2663 86.4332 45.7551C86.7896 46.2438 85.1501 49.6308 85.1501 49.6308Z" fill="#B20D0D"/>
<path d="M89.0553 36.6091C87.3817 37.3469 86.0737 40.4008 86.0737 42.1192V46.9132C85.1656 46.4961 84.1769 45.5124 83.4485 44.6812C83.4485 44.6812 83.4464 44.6791 83.4423 44.675C82.8038 43.9465 82.3668 43.3364 82.3668 43.3364C84.149 41.5464 83.9351 41.26 85.0726 38.9003C85.1625 38.7104 85.2648 38.5392 85.3733 38.3836C85.3733 38.3836 85.3733 38.3835 85.3825 38.3773C86.6502 36.55 89.0491 36.6122 89.0491 36.6122L89.0553 36.6091Z" fill="#35BBB2"/>
<path opacity="0.13" d="M89.0553 36.6091C87.3816 37.3469 86.0737 40.4008 86.0737 42.1192V46.9132C85.1656 46.4961 84.1768 45.5124 83.4485 44.6812C85.5127 46.6486 84.7905 41.9013 85.7111 39.7595C86.582 37.7236 85.5034 38.312 85.3856 38.3773C86.6533 36.55 89.0522 36.6122 89.0522 36.6122L89.0553 36.6091Z" fill="#751212"/>
<path d="M89.8518 63.8698C89.7991 63.8635 89.7434 63.8573 89.6876 63.8511C88.9313 63.7421 87.8682 63.3592 86.6532 63.683C85.15 64.0783 83.4113 65.5508 81.7314 69.9526C78.5979 78.1803 83.4392 89.3436 83.4392 89.3436L81.0898 90.0596C80.597 89.4619 80.0329 88.5217 79.4502 87.3419C79.4502 87.3326 79.4409 87.3232 79.4347 87.317C76.732 81.8381 73.5892 71.2165 74.8197 65.5197C75.9727 60.1622 80.8202 56.8499 82.9712 55.6234C83.6065 55.2561 84.0094 55.0724 84.0094 55.0724C84.0993 55.1564 84.1954 55.2343 84.2853 55.309C86.8919 57.4663 89.3683 56.9402 89.8518 57.2173C89.889 57.2359 89.92 57.2951 89.9448 57.376C90.0285 57.6282 90.0626 58.1418 90.0688 58.7738C90.0936 60.7443 89.8487 63.8698 89.8487 63.8698H89.8518Z" fill="#604BAD"/>
<path d="M99.398 69.6662C98.8278 80.5431 96.2645 95.6381 96.2645 95.6381C95.124 96.2825 94.0547 96.0677 94.0547 96.0677C94.0547 96.0677 93.7726 94.8256 93.3604 92.8115C92.6413 89.2907 91.5286 83.4133 90.8499 77.6791C90.3044 73.075 89.9263 67.8575 89.6876 63.8511C89.5543 61.6564 89.4644 59.826 89.4118 58.6617C89.3715 57.7901 89.356 57.2889 89.356 57.2889C89.5543 57.3231 89.7527 57.3511 89.9479 57.3791C95.0403 58.0484 99.4011 55.86 99.4011 55.86C99.4011 55.86 99.9714 58.7924 99.4011 69.6693L99.398 69.6662Z" fill="#604BAD"/>
<path opacity="0.43" d="M89.8519 63.8698C89.7992 63.8635 89.7434 63.8573 89.6876 63.8511C88.9314 63.7421 87.8683 63.3592 86.6533 63.683C85.5251 61.6595 84.8928 59.0134 84.5581 57.127C84.4248 56.3705 84.338 55.7386 84.2885 55.309C86.8951 57.4663 89.3715 56.9402 89.855 57.2172C89.8922 57.2359 89.9232 57.2951 89.948 57.376C90.0316 57.6282 90.0657 58.1418 90.0719 58.7737C90.0967 60.7443 89.8519 63.8698 89.8519 63.8698Z" fill="#270B72"/>
<path opacity="0.23" d="M99.398 69.6662C98.8277 80.5431 96.2645 95.6381 96.2645 95.6381C95.1239 96.2825 94.0546 96.0677 94.0546 96.0677C94.0546 96.0677 93.7726 94.8256 93.3604 92.8115C93.7509 93.2878 94.3274 93.1228 94.7582 92.2044C95.3595 90.9156 95.2944 71.7395 95.0806 66.2325C94.8853 61.2175 94.1011 59.5209 90.075 58.7738C89.8642 58.7333 89.6442 58.6959 89.4148 58.6617C89.2134 58.6337 89.0057 58.6025 88.7888 58.5745C86.864 58.3348 85.5096 57.7558 84.5643 57.1239C83.7863 56.604 83.2873 56.0499 82.9805 55.6172C83.6158 55.2498 84.0188 55.0662 84.0188 55.0662C84.1086 55.1502 84.2047 55.228 84.2946 55.3027C86.9012 57.4601 89.3776 56.934 89.8611 57.211C89.8983 57.2297 89.9293 57.2889 89.9541 57.3698C95.0465 58.0391 99.4073 55.8506 99.4073 55.8506C99.4073 55.8506 99.9776 58.7831 99.4073 69.66L99.398 69.6662Z" fill="#44002C"/>
<path d="M105.715 74.2921H103.815V80.7796H105.715V74.2921Z" fill="#8080CE"/>
<path d="M95.4556 55.642C88.9376 56.5821 85.6708 55.3058 84.6263 53.1142C84.2605 52.3484 84.3256 51.5235 84.5581 50.655C84.9951 49.0424 86.0179 47.2991 85.9528 45.5278C85.8784 43.3705 85.2957 38.4457 88.5222 36.4347C89.3622 35.9117 90.4594 35.5848 91.8913 35.5568C99.9157 35.3918 99.1563 41.3284 99.1563 47.7194C99.1563 52.3951 102.708 54.5898 95.4556 55.6389V55.642Z" fill="#35BBB2"/>
<path opacity="0.13" d="M95.4556 55.642C88.9376 56.5821 85.6708 55.3058 84.6263 53.1142C84.2605 52.3484 84.3256 51.5235 84.5581 50.655C84.493 52.0153 84.4124 52.4418 87.4467 53.9143C90.4811 55.3898 95.2727 54.5649 95.5145 47.7567C95.7562 40.9517 94.3026 39.9804 90.7569 39.252C88.1937 38.7259 88.2805 37.2285 88.5253 36.4347C89.3653 35.9117 90.4625 35.5848 91.8944 35.5568C99.9187 35.3918 99.1594 41.3284 99.1594 47.7194C99.1594 52.3951 102.711 54.5898 95.4587 55.6389L95.4556 55.642Z" fill="#751212"/>
<path d="M92.2446 34.9871C96.1592 35.2767 96.0259 38.8037 91.9905 38.9936C88.0945 39.1773 87.7536 34.6541 92.2446 34.9871Z" fill="white"/>
<path d="M104.029 26.5198C102.888 28.5246 101.323 27.8833 101.323 27.8833C101.323 27.8833 100.752 28.8826 99.5406 28.8826C98.4372 28.8826 95.2727 28.2911 95.6757 26.6723C95.6757 26.6723 95.6757 26.6703 95.6757 26.6661C95.716 26.5073 95.7903 26.3392 95.905 26.1618C97.1882 24.157 95.0093 23.0768 95.1922 21.7973C95.375 20.5179 92.7126 21.2962 92.2415 20.2938C91.7704 19.2914 91.0575 21.0814 88.6369 21.3677C86.2163 21.6541 86.2875 20.1506 86.2875 20.1506C82.4412 18.2174 82.7976 14.2109 84.5054 12.9969C85.4135 12.3493 86.6874 12.0879 88.0325 12.4272C89.2165 12.7229 90.4532 13.4825 91.5565 14.8584C91.5565 14.8584 91.414 12.7105 94.9039 12.9253C98.3938 13.1401 100.532 17.6477 100.532 17.6477C100.532 17.6477 101.031 15.6429 102.882 16.5737C104.735 17.5045 104.735 20.795 103.309 22.5133C103.309 22.5133 105.163 24.5181 104.022 26.5198H104.029Z" fill="#C66A66"/>
<path opacity="0.36" d="M104.029 26.5197C102.888 28.5245 101.323 27.8832 101.323 27.8832C101.323 27.8832 100.752 28.8825 99.5406 28.8825C98.4372 28.8825 95.2727 28.291 95.6757 26.6723C95.6757 26.6723 95.6757 26.6702 95.6757 26.6661C95.9577 26.0746 96.3389 25.9283 96.6861 26.6661C97.7802 28.9821 99.1532 23.4596 99.1532 23.4596C99.1532 23.4596 99.5437 26.9431 101.149 26.2116C102.758 25.4831 101.478 23.5375 101.478 23.5375C102.767 22.9709 102.69 20.5396 101.72 18.9209C100.749 17.299 99.1532 18.9209 99.1532 18.9209C98.4403 15.9199 95.8337 14.2202 93.8346 13.8965C91.8355 13.5696 91.476 16.3277 91.476 16.3277C90.7755 14.2856 88.1906 12.533 88.0294 12.4271C89.2134 12.7229 90.4501 13.4824 91.5535 14.8584C91.5535 14.8584 91.4109 12.7104 94.9008 12.9252C98.3907 13.14 100.529 17.6476 100.529 17.6476C100.529 17.6476 101.028 15.6429 102.879 16.5737C104.732 17.5045 104.732 20.7949 103.306 22.5133C103.306 22.5133 105.16 24.5181 104.019 26.5197H104.029Z" fill="#751212"/>
<path d="M98.5426 31.7435C96.8317 31.9583 96.6179 30.8843 96.1933 31.0275C95.7686 31.1707 94.9814 31.7435 94.625 32.3879C94.3429 32.9015 94.0578 35.5351 93.9555 36.5967C93.9276 36.8831 93.7571 37.1414 93.503 37.2722C92.3748 37.8574 91.4698 37.8139 90.8809 37.6551C90.4594 37.5399 90.1866 37.129 90.2517 36.6932C90.3602 35.9865 90.4872 34.7724 90.3509 33.5303C90.1587 31.7933 86.1636 33.8167 84.6883 30.9621C84.5674 30.7317 84.4651 30.4734 84.3845 30.1745C84.3535 30.0562 84.3225 29.9379 84.2977 29.8072C84.0839 28.7674 84.0746 27.6934 84.1893 26.6599C84.4465 24.2909 85.3391 22.1118 85.8722 20.9756C86.1202 20.4526 86.2906 20.1475 86.2906 20.1475C90.7476 21.4083 93.0257 18.152 93.1279 18.0057C93.0784 18.1116 92.3903 19.6743 93.63 20.5055C94.8822 21.3429 96.404 19.7988 96.4753 19.721C96.4474 19.8051 95.8461 21.5359 96.1933 22.722C96.5497 23.9391 97.9041 23.08 97.9041 23.08C97.9041 24.0823 97.12 25.8692 96.6923 26.6568C96.2645 27.4444 97.0487 28.4468 97.9041 27.6592C98.7596 26.8716 99.6863 27.3012 100.185 28.3752C100.684 29.4492 100.257 31.5224 98.5457 31.7372L98.5426 31.7435Z" fill="#FFC9A1"/>
<path d="M94.3398 31.124C95.5723 31.124 96.5714 30.1205 96.5714 28.8826C96.5714 27.6447 95.5723 26.6412 94.3398 26.6412C93.1073 26.6412 92.1082 27.6447 92.1082 28.8826C92.1082 30.1205 93.1073 31.124 94.3398 31.124Z" fill="#F98C8C"/>
<path opacity="0.13" d="M98.5426 31.7435C96.8317 31.9583 96.6179 30.8843 96.1933 31.0275C95.7686 31.1707 94.9814 31.7435 94.625 32.3879C94.3429 32.9015 94.0578 35.5351 93.9555 36.5967C93.9276 36.8831 93.7571 37.1414 93.503 37.2722C92.3748 37.8574 91.4698 37.8139 90.8809 37.6551C90.4594 37.5399 90.1866 37.129 90.2517 36.6932C90.3602 35.9865 90.4873 34.7724 90.3509 33.5303C90.1587 31.7933 86.1636 33.8167 84.6883 30.9621C84.5674 30.7317 84.4651 30.4734 84.3845 30.1745C85.0044 31.5598 86.7184 31.9552 90.6763 31.1676C95.561 30.1963 94.3398 25.449 94.3398 25.449C92.1981 25.0972 94.0981 22.2363 94.0981 22.2363C90.8251 22.8838 91.321 20.2471 91.321 20.2471C88.6772 21.9686 86.7773 21.4487 85.8722 20.9756C86.1202 20.4526 86.2907 20.1475 86.2907 20.1475C90.7476 21.4083 93.0257 18.152 93.1279 18.0057C93.0784 18.1116 92.3903 19.6743 93.6301 20.5055C94.8822 21.3429 96.404 19.7988 96.4753 19.721C96.4474 19.8051 95.8461 21.5359 96.1933 22.722C96.5497 23.9391 97.9041 23.08 97.9041 23.08C97.9041 24.0823 97.12 25.8692 96.6923 26.6568C96.2645 27.4444 97.0487 28.4468 97.9041 27.6592C98.7596 26.8716 99.6863 27.3012 100.185 28.3752C100.684 29.4492 100.257 31.5224 98.5457 31.7372L98.5426 31.7435Z" fill="#B20D0D"/>
<path d="M98.3133 28.7456C99.6336 28.3814 99.2245 30.6726 98.3133 30.5294C97.402 30.3862 97.5167 28.9666 98.3133 28.7456Z" fill="#F98C8C"/>
<path d="M88.9252 24.017C89.4273 24.0263 88.64 25.1626 88.64 26.5198C88.64 27.8771 89.0894 27.6966 88.0697 27.8802C86.7649 28.1168 86.8888 27.6281 87.0717 26.9494C87.2856 26.1618 88.5687 24.0108 88.9252 24.017Z" fill="#D46463"/>
<path d="M86.3712 24.792C86.2907 25.1625 86.0582 25.4302 85.8536 25.3835C85.6491 25.3399 85.5499 25.0006 85.6305 24.627C85.7111 24.2566 85.9435 23.9889 86.1481 24.0356C86.3526 24.0823 86.4518 24.4185 86.3712 24.792Z" fill="#352623"/>
<path d="M94.4669 25.1252C94.3864 25.4956 94.1539 25.7633 93.9493 25.7166C93.7448 25.6699 93.6456 25.3337 93.7262 24.9602C93.8068 24.5897 94.0392 24.322 94.2438 24.3687C94.4483 24.4154 94.5475 24.7516 94.4669 25.1252Z" fill="#352623"/>
<path d="M86.0985 28.8825C86.0985 29.8289 85.5158 30.6414 84.6883 30.9651C84.524 30.6476 84.3877 30.2678 84.2947 29.8102C84.0808 28.7705 84.0715 27.6965 84.1862 26.663C85.2679 26.8186 86.0985 27.7494 86.0985 28.8825Z" fill="#F98C8C"/>
<path d="M91.3303 31.6998C94.4111 31.0025 94.9566 27.3447 92.7715 27.354C90.7941 27.3634 91.4295 28.5961 89.1018 28.5961C86.7742 28.5961 86.5665 30.8655 87.704 31.5223C88.8415 32.1823 89.9758 32.0049 91.3303 31.6967V31.6998Z" fill="white"/>
<g opacity="0.32">
<path d="M89.232 28.5962C89.232 28.5962 88.8849 30.8344 89.232 31.9707" stroke="black" stroke-width="0.878571" stroke-linecap="round" stroke-linejoin="round"/>
<path d="M90.977 28.0514C90.977 28.0514 92.1207 29.4305 92.5546 31.2018" stroke="black" stroke-width="0.878571" stroke-linecap="round" stroke-linejoin="round"/>
</g>
<path d="M84.8649 53.0645C84.8649 53.0645 83.3679 52.8497 83.4392 54.4965C83.5105 56.1433 87.4281 58.5745 94.0546 57.8585C100.681 57.1425 100.681 55.2125 100.182 54.4249C99.6832 53.6373 98.4 53.9953 97.901 54.2101C97.402 54.4249 90.4934 57.6437 84.8649 53.0645Z" fill="white"/>
<path d="M80.9472 91.1304C80.9472 91.1304 81.8026 93.35 81.5888 94.2777C81.3749 95.2085 80.5195 96.2825 80.9472 96.709C81.3749 97.1386 84.7936 96.2078 85.2213 95.3486C85.649 94.4894 84.152 90.0533 84.152 90.0533L80.9472 91.1273V91.1304Z" fill="#30307F"/>
<path d="M93.3046 96.9175C93.3046 96.9175 93.5402 99.2834 93.0877 100.124C92.6351 100.964 91.5256 101.768 91.8231 102.297C92.1206 102.826 95.6633 102.845 96.3048 102.132C96.9464 101.419 96.6799 96.7432 96.6799 96.7432L93.3046 96.9206V96.9175Z" fill="#30307F"/>
<path d="M88.6276 102.938H76.1679C75.579 102.938 75.1823 102.381 75.4241 101.883L77.6154 97.3689C77.7455 97.1011 78.04 96.9237 78.3623 96.9237H86.8082C87.1491 96.9237 87.456 97.1198 87.5738 97.4125L89.3931 101.926C89.5884 102.415 89.1979 102.938 88.6276 102.938Z" fill="#753E3E"/>
<path d="M102.767 79.9204H99.0633V86.218H102.767V79.9204Z" fill="#B5BFC6"/>
<path d="M104.193 30.3114H97.4516V81.4489H104.193V30.3114Z" fill="#30307F"/>
<path d="M104.193 25.978H97.4516V30.8841H104.193V25.978Z" fill="#8080CE"/>
<path d="M101.159 17.7192H100.539V21.4393H101.159V17.7192Z" fill="#30307F"/>
<path d="M104.193 25.9781H97.4516C97.4516 25.9781 97.9258 23.7274 99.6522 20.1007C99.6522 20.1007 100.064 20.1505 100.539 20.1785C100.632 20.1879 100.728 20.1941 100.824 20.1972C100.938 20.1972 101.05 20.2066 101.158 20.2034C101.524 20.2097 101.834 20.1848 101.918 20.1007C102.156 19.8641 103.44 23.0736 104.199 25.9781H104.193Z" fill="#B5BFC6"/>
<path d="M103.437 85.2654V92.3257C103.437 93.7483 102.287 94.9002 100.873 94.9002H100.824C99.4291 94.8753 98.3071 93.7297 98.3071 92.3257V85.2654H103.437Z" fill="#30307F"/>
<path opacity="0.23" d="M104.193 25.9781V81.4489H102.767V85.2654H103.433V92.3258C103.433 93.7484 102.284 94.9002 100.87 94.9002H100.821V17.7192H101.155V20.2065C101.521 20.2128 101.831 20.1879 101.915 20.1038C102.153 19.8672 103.437 23.0767 104.196 25.9812L104.193 25.9781Z" fill="#44002C"/>
<path d="M104.397 57.3106C103.3 56.7814 102.894 55.1657 102.885 53.5002V53.494C102.876 52.3111 103.065 51.1032 103.34 50.2503C104.007 48.1988 104.72 46.4804 104.444 45.478C104.168 44.4756 104.246 44.4756 103.768 43.9526C103.294 43.4265 101.487 44.0958 101.301 43.6164C101.109 43.137 102.913 43.2366 103.012 42.8537C103.105 42.4739 100.635 42.5206 100.873 41.9011C101.109 41.2785 102.77 42.2374 102.77 41.9011C102.77 41.5649 100.303 41.1385 100.731 40.4225C101.159 39.7065 103.39 41.4716 103.248 41.0918C103.105 40.7089 101.403 39.1804 101.775 38.6605C101.837 38.5733 101.927 38.5453 102.036 38.5733C102.336 38.6418 102.783 39.1088 103.201 39.7065C103.771 40.519 104.388 40.9486 104.01 39.6598C103.629 38.371 104.153 37.2721 104.153 37.2721C104.153 37.2721 104.199 38.2278 104.958 39.5166C105.718 40.8054 106.384 41.1353 106.527 42.5206C106.669 43.9028 107.19 45.0951 107.952 47.3365C108.715 49.5778 107.54 58.8142 104.404 57.3043L104.397 57.3106Z" fill="#FFC9A1"/>
<path d="M106.855 81.066H105.43V63.272C105.43 62.8767 105.749 62.556 106.142 62.556C106.536 62.556 106.855 62.8767 106.855 63.272V81.066Z" fill="#30307F"/>
<path d="M93.0442 95.5789L96.8069 95.4357C97.0518 95.4264 97.247 95.6319 97.2315 95.8747L97.1603 96.8708C97.1448 97.0794 96.9774 97.2444 96.7697 97.2506L93.2922 97.3938C93.0938 97.4031 92.9172 97.2662 92.8769 97.0701L92.663 96.0708C92.6103 95.8217 92.7932 95.5852 93.0473 95.5727L93.0442 95.5789Z" fill="white"/>
<path opacity="0.13" d="M104.397 57.3106C103.3 56.7814 102.894 55.1657 102.885 53.5002C102.922 53.6434 103.728 56.6662 105.237 54.624C106.784 52.5352 106.592 48.2704 106.139 46.194C105.687 44.1176 106.09 43.7627 104.097 41.3284C103.065 40.0707 102.417 39.1586 102.029 38.5733C102.33 38.6418 102.776 39.1088 103.195 39.7065C103.765 40.519 104.382 40.9486 104.004 39.6598C103.623 38.371 104.146 37.2721 104.146 37.2721C104.146 37.2721 104.193 38.2278 104.952 39.5166C105.712 40.8054 106.378 41.1353 106.52 42.5206C106.663 43.9028 107.184 45.0951 107.946 47.3365C108.709 49.5778 107.534 58.8142 104.397 57.3043V57.3106Z" fill="#B20D0D"/>
<path opacity="0.23" d="M89.6845 63.8511C88.9282 63.7421 87.8651 63.3592 86.6502 63.683C85.147 64.0783 83.4082 65.5508 81.7283 69.9526C78.5948 78.1803 83.4361 89.3435 83.4361 89.3435L81.0867 90.0595C80.5939 89.4618 80.0298 88.5217 79.4471 87.3419C80.5009 89.1381 81.8585 88.0983 79.7695 81.7602C77.665 75.391 79.5184 66.0177 83.4361 63.3717C87.3537 60.7256 89.6814 63.8511 89.6814 63.8511H89.6845Z" fill="#44002C"/>
<path d="M80.3429 89.9101L83.932 88.7645C84.1645 88.6898 84.4093 88.8361 84.4558 89.0758L84.6511 90.0564C84.6914 90.2618 84.5736 90.4642 84.3752 90.5296L81.062 91.6004C80.8729 91.6627 80.6652 91.5755 80.5754 91.3981L80.1043 90.4922C79.9865 90.2649 80.1012 89.9879 80.3429 89.9101Z" fill="white"/>
<path opacity="0.23" d="M88.6276 102.938H76.168L85.085 101.223C86.0799 101.033 86.6843 100.009 86.3774 99.0406C86.2008 98.4864 85.7575 98.0631 85.1965 97.9136L81.4401 96.9237H86.8051C87.1461 96.9237 87.4529 97.1198 87.5707 97.4125L89.39 101.926C89.5853 102.415 89.1948 102.938 88.6245 102.938H88.6276Z" fill="#2B001E"/>
<path d="M31.3227 98.72C32.6895 100.784 31.2297 103.47 23.9833 104.205H23.9771C22.4708 104.358 20.7072 104.426 18.6709 104.386C6.84357 104.155 5.35586 99.0531 7.34258 96.8522C9.3262 94.6513 7.95006 91.9119 7.95006 91.9119C18.3796 97.176 32.048 92.9111 32.3145 92.8271C32.2618 92.8956 31.6357 93.7268 31.2018 94.8381C30.7493 95.9993 30.4983 97.4748 31.3258 98.72H31.3227Z" fill="#753E3E"/>
<path opacity="0.23" d="M23.9739 104.202C22.4676 104.355 20.7041 104.423 18.6677 104.383C6.8404 104.152 5.35268 99.0499 7.3394 96.849C9.32302 94.6481 7.94689 91.9087 7.94689 91.9087C18.3764 97.1728 32.0448 92.908 32.3113 92.8239C32.2586 92.8924 31.6326 93.7236 31.1986 94.8349C29.3731 95.6132 25.6817 96.765 19.7773 96.8179C10.8262 96.902 15.3793 99.3799 12.8656 100.622C10.352 101.861 16.9104 104.535 23.9801 104.199L23.9739 104.202Z" fill="#2B001E"/>
<path d="M34.1833 92.217C32.6956 94.1003 27.6374 95.6319 19.5045 95.414C1.9247 94.944 1.34511 85.2843 20.3476 86.1186C23.7073 86.268 26.4441 86.6322 28.5982 87.1396C33.8517 88.3755 35.5812 90.4519 34.1833 92.217Z" fill="#FE9A5C"/>
<path opacity="0.23" d="M34.1833 92.217C32.6956 94.1003 27.6374 95.6319 19.5045 95.414C1.9247 94.944 1.34511 85.2843 20.3476 86.1186C23.7073 86.268 26.4441 86.6322 28.5982 87.1396C28.9701 87.7093 29.5714 88.1296 30.4857 88.3195C30.4857 88.3195 35.5161 88.9856 32.9064 91.3702C30.2967 93.7579 19.9447 93.7579 18.6119 93.8513C17.2823 93.9447 17.431 95.1868 23.3633 94.9004C29.2925 94.614 32.364 92.9734 34.1802 92.2201C34.1802 92.2201 34.1802 92.2201 34.1864 92.2201L34.1833 92.217Z" fill="#2B001E"/>
<path d="M32.9065 90.5173C32.767 90.869 31.9053 91.5134 30.1077 92.08C28.403 92.6185 25.8584 93.0886 22.2879 93.1789C22.0864 93.1789 21.8819 93.1882 21.668 93.1882H21.4294C21.2992 93.1945 21.1659 93.1944 21.0295 93.1944C20.9613 93.1944 20.8901 93.1944 20.8188 93.1944C20.7723 93.1944 20.7258 93.1944 20.6762 93.1944C20.5894 93.1944 20.5057 93.1944 20.4158 93.1944C20.1307 93.1944 19.8394 93.1851 19.5511 93.1789C18.9405 93.1602 18.364 93.1353 17.8092 93.0979C17.5086 93.0793 17.2204 93.0544 16.9383 93.0295C16.6873 93.0077 16.4424 92.9828 16.2037 92.9579C16.1511 92.9516 16.1015 92.9454 16.0519 92.9392C14.2418 92.7306 12.7882 92.4162 11.6414 92.0613C8.96353 91.2333 7.94073 90.1935 7.94693 89.8075C7.94693 89.6238 8.22277 89.2876 8.87985 88.9172C9.83757 88.3724 11.6073 87.7622 14.5239 87.479C14.6324 87.4665 14.7408 87.4603 14.8524 87.4478C15.0384 87.4323 15.2243 87.4198 15.4165 87.4074C16.2285 87.3513 17.1181 87.3202 18.0913 87.3202C18.5965 87.3202 19.1203 87.3295 19.6503 87.3451C19.858 87.3513 20.0656 87.3607 20.2733 87.3669C20.6142 87.3824 20.952 87.398 21.2775 87.4198C21.3829 87.4198 21.4851 87.4291 21.5874 87.4385C21.7827 87.4509 21.9717 87.4634 22.1577 87.479C23.6578 87.5879 24.9627 87.7436 26.094 87.9272C26.2644 87.9521 26.4287 87.9801 26.593 88.0113C26.7231 88.0331 26.8533 88.058 26.9773 88.0829C28.4154 88.3537 29.5374 88.6712 30.3959 88.9888C32.113 89.6176 32.798 90.2495 32.9065 90.5235V90.5173Z" fill="#753E3E"/>
<path d="M29.3111 77.6885H29.3049C28.9764 77.5453 28.5858 77.5235 28.1829 77.5702C27.6002 77.6418 26.9927 77.8659 26.4937 78.0994C24.693 78.9492 25.5236 76.2285 28.0868 75.2914C30.65 74.3544 32.3113 71.4624 30.9972 69.8437C29.6799 68.228 26.5619 72.2282 25.6631 71.0328C24.8727 69.9869 27.2345 64.2931 25.0556 62.3942C25.0556 62.3942 25.0556 62.3942 25.0494 62.3942C24.7488 62.1296 24.3582 61.9428 23.8623 61.8463C23.791 61.8308 23.7229 61.8245 23.6578 61.8152C19.8238 61.3389 21.1999 68.5829 19.5015 69.5012C17.7689 70.4382 17.1459 66.8209 14.6509 68.4179C14.1395 68.7479 13.7614 69.2553 13.5134 69.8872C13.4049 70.1581 13.3212 70.4507 13.2624 70.762C13.2159 71.0017 13.1818 71.2507 13.1632 71.5122C12.9772 73.9093 13.9256 76.9974 15.6892 78.9492C17.5922 81.0536 15.3824 80.4653 14.1147 81.4116C13.8853 81.5797 13.687 81.7976 13.5506 82.0934C13.3398 82.5448 13.2686 83.1705 13.4452 84.0546C13.6746 85.2095 14.0527 86.3613 14.5238 87.4758C14.7253 87.9552 14.9484 88.4284 15.1809 88.8891C15.3979 89.3187 15.6241 89.7389 15.8628 90.1499C16.3184 90.9437 16.8019 91.6939 17.2916 92.3819C17.3071 92.4006 17.3164 92.4192 17.3319 92.4348C17.4125 92.55 17.4931 92.6621 17.5767 92.771C17.6542 92.88 17.7348 92.9858 17.8123 93.0917C18.364 93.129 18.9436 93.1539 19.5542 93.1726C19.8331 93.1788 20.1183 93.185 20.3941 93.1882H20.4158C20.5026 93.1882 20.5894 93.1882 20.6761 93.1882C20.7257 93.1882 20.7722 93.1882 20.8187 93.1882C20.89 93.1882 20.9613 93.1882 21.0295 93.1882C21.1628 93.1882 21.296 93.1882 21.4293 93.1882H21.6649C21.8756 93.1882 22.0802 93.1819 22.2847 93.1788C22.5482 92.8955 22.8302 92.5936 23.1154 92.2729C23.7415 91.5818 24.4109 90.8129 25.0773 89.9849C25.5887 89.3498 26.097 88.6899 26.5867 88.005C27.0826 87.3139 27.5537 86.5979 27.9783 85.8757C27.9783 85.8757 27.9783 85.8757 27.9783 85.8695C28.623 84.7861 29.1654 83.6841 29.5343 82.6101C30.6407 79.3975 30.2161 78.0838 29.3049 77.6916L29.3111 77.6885Z" fill="#8080CE"/>
<path opacity="0.64" d="M19.8764 95.5011C19.8424 95.5976 19.8083 95.6972 19.7742 95.7937C19.799 95.6879 19.8269 95.582 19.8517 95.4762C19.861 95.4855 19.8703 95.4949 19.8764 95.5011Z" fill="#30307F"/>
<path opacity="0.52" d="M23.9708 70.4631C23.9522 71.9076 23.8903 73.3551 23.8128 74.7933C23.7818 75.5187 23.7136 76.2347 23.6547 76.9538C23.5989 77.676 23.5431 78.392 23.4594 79.108C23.32 80.5057 23.1402 81.8941 22.9201 83.2763C22.8984 83.4382 22.8674 83.6032 22.8427 83.765C22.6443 85.0071 22.4118 86.243 22.1546 87.4727C22.1453 87.5256 22.136 87.5785 22.1236 87.6314L21.6463 89.7202C21.5006 90.3055 21.3332 90.8876 21.1721 91.4698C21.1442 91.5725 21.1163 91.6752 21.0853 91.778L20.8218 92.7119L20.797 92.8021C20.7568 92.9329 20.7165 93.0636 20.6731 93.1913C20.5863 93.1913 20.5026 93.1913 20.4127 93.1913C20.4561 93.0294 20.4995 92.8644 20.5367 92.6994L20.7537 91.6534C20.7846 91.504 20.8156 91.3577 20.8497 91.2114C20.8621 91.1429 20.8776 91.0775 20.8931 91.0121V91.0059C20.9985 90.5265 21.1039 90.0533 21.1938 89.5708L21.5781 87.4727C21.5781 87.4727 21.5843 87.4477 21.5843 87.4353C21.7207 86.7504 21.8106 86.0562 21.9221 85.3651C21.95 85.1815 21.9779 84.9978 22.0089 84.8141C22.043 84.59 22.0802 84.369 22.1143 84.1511C22.1608 83.8522 22.2011 83.5534 22.2383 83.2483L22.5172 81.1314L22.7466 78.999C22.8334 78.2924 22.8953 77.5795 22.9573 76.8666C23.0224 76.1537 23.0875 75.4409 23.134 74.728C23.1867 74.012 23.2518 73.2991 23.289 72.5831L23.4129 70.4351C23.5493 67.649 23.6361 64.8566 23.6485 62.0518C23.6485 61.9708 23.6485 61.893 23.6485 61.8152C23.6578 61.893 23.664 61.9739 23.6702 62.0487C23.9367 64.8348 24.0018 67.6521 23.9646 70.46L23.9708 70.4631Z" fill="#30307F"/>
<path opacity="0.23" d="M19.8517 95.4762C19.8517 95.4762 19.8703 95.4949 19.8764 95.5011C19.8424 95.5976 19.8083 95.6972 19.7742 95.7937C19.799 95.6879 19.8269 95.582 19.8517 95.4762Z" fill="#44002C"/>
<path opacity="0.26" d="M25.0495 62.3973C24.9782 62.3506 24.3304 61.9646 23.6795 62.0548C23.6702 62.0548 23.6609 62.0548 23.6547 62.0548C23.0379 62.1513 22.4274 62.693 22.3003 64.3709C22.0337 67.9478 22.6009 70.9549 20.109 72.169C17.6171 73.3862 18.2556 78.0371 20.109 80.5399C21.9624 83.0428 15.8349 81.9003 17.8991 86.4795C18.8878 88.6711 19.7371 90.2463 20.8498 91.2082C20.9551 91.3016 21.0636 91.3888 21.1752 91.4697C21.7362 91.8775 22.3685 92.1484 23.1154 92.2729C22.8272 92.5935 22.5482 92.8955 22.2848 93.1788C22.0833 93.1788 21.8788 93.1881 21.6649 93.1881H21.4262C21.2961 93.1943 21.1628 93.1943 21.0264 93.1943C20.9582 93.1943 20.887 93.1943 20.8157 93.1943C20.7692 93.1943 20.7227 93.1943 20.6731 93.1943C20.5863 93.1943 20.5026 93.1943 20.4127 93.1943H20.391C20.1152 93.1943 19.8301 93.185 19.5511 93.1788C18.9405 93.1601 18.364 93.1352 17.8092 93.0978C17.7287 92.992 17.6512 92.8861 17.5737 92.7772C17.49 92.6651 17.4094 92.553 17.3288 92.441C17.3133 92.4223 17.304 92.4036 17.2885 92.3881C16.8019 91.697 16.3153 90.9498 15.8597 90.1591C15.6242 89.7482 15.3948 89.3248 15.1778 88.8984C14.9454 88.4376 14.7222 87.9645 14.5208 87.4851C14.0466 86.3706 13.6684 85.2188 13.4422 84.0639C13.2655 83.1798 13.3368 82.554 13.5476 82.1058C13.6839 81.8069 13.8823 81.5921 14.1116 81.4209C15.3793 80.4777 17.5923 81.0629 15.6861 78.9585C13.9226 77.0098 12.9742 73.9216 13.1601 71.5215C13.1787 71.26 13.2128 71.011 13.2593 70.7713C13.3182 70.46 13.4019 70.1673 13.5104 69.8965C13.7583 69.2677 14.1333 68.7572 14.6478 68.4272C17.1398 66.8333 17.7658 70.4475 19.4984 69.5105C21.2 68.5922 19.8239 61.3482 23.6547 61.8245C23.7198 61.8338 23.788 61.8431 23.8593 61.8556C24.3552 61.949 24.7457 62.1389 25.0464 62.4035L25.0495 62.3973Z" fill="#30307F"/>
<path opacity="0.26" d="M29.5437 82.607C29.1748 83.681 28.6324 84.783 27.9878 85.8663C27.9878 85.8663 27.9878 85.8663 27.9878 85.8725C27.5631 86.5948 27.092 87.3107 26.5961 88.0018C26.1064 88.6867 25.5981 89.3467 25.0867 89.9786C24.1104 91.1927 23.1279 92.2822 22.291 93.1725C22.0896 93.1725 21.885 93.1819 21.6712 93.1819H21.4325C21.3023 93.1881 21.1691 93.1881 21.0327 93.1881C20.9645 93.1881 20.8932 93.1881 20.8219 93.1881C20.7754 93.1881 20.7289 93.1881 20.6793 93.1881C20.5926 93.1881 20.5089 93.1881 20.419 93.1881H20.3973C19.982 88.6587 20.9955 85.7044 22.1206 84.151C22.3871 83.7775 22.663 83.4911 22.9233 83.2794C23.661 82.6755 24.3088 82.691 24.4575 83.2607C24.8852 84.9075 25.1704 85.2655 26.3823 81.1127C26.999 78.9928 27.6747 78.0153 28.1892 77.5701C28.5952 77.5203 28.9858 77.5452 29.3112 77.6884H29.3174C30.2286 78.0838 30.6532 79.3943 29.5468 82.607H29.5437Z" fill="#30307F"/>
<path d="M35.637 85.5613C35.5224 87.1739 32.2463 88.4284 30.3928 88.9825C29.9713 89.107 29.6211 89.1973 29.401 89.2471C28.2233 89.5024 28.9175 89.9258 30.1635 90.1841C30.5292 90.2589 30.7028 90.7165 30.5292 91.2986C30.4548 91.5445 30.3154 91.8122 30.1046 92.0831C28.3999 92.6216 25.8553 93.0917 22.2848 93.182C22.0833 93.182 21.8788 93.1913 21.6649 93.1913H21.4263C21.2961 93.1975 21.1628 93.1975 21.0264 93.1975C20.9582 93.1975 20.887 93.1975 20.8157 93.1975C20.8157 93.0543 20.8219 92.8956 20.825 92.7181C20.8374 92.2481 20.8529 91.669 20.8901 91.0309C20.8901 91.0247 20.8901 91.0184 20.8901 91.0122V91.006C20.952 89.8884 21.0667 88.6058 21.2713 87.4198C21.4449 86.4267 21.6804 85.5053 22.0058 84.8173C22.2352 84.3286 22.5141 83.9612 22.8365 83.7713C23.0008 83.6748 23.1774 83.6219 23.3696 83.6219C25.1734 83.6219 24.2715 85.7605 25.034 85.7605C25.7964 85.7605 27.092 78.2862 28.9113 77.7632C29.0539 77.7196 29.181 77.6978 29.2988 77.6916H29.305C30.7462 77.592 30.1635 79.8832 31.0592 79.8053C32.0293 79.7182 33.7619 75.8923 35.6308 77.6792C35.9718 78.006 36.1174 78.3702 36.1267 78.7531C36.1794 80.4746 33.5449 82.5853 33.8301 83.2079C34.1772 83.9737 35.7703 83.5845 35.6308 85.5675L35.637 85.5613Z" fill="#8080CE"/>
<path opacity="0.52" d="M35.637 77.6729C35.5719 77.7819 35.5068 77.8908 35.4355 77.9967C34.4933 79.5096 33.3961 80.8762 32.2896 82.2117C31.6977 82.9277 31.0902 83.6188 30.4796 84.313C29.869 85.0041 29.2429 85.6734 28.623 86.352C28.0745 86.9279 27.529 87.5069 26.9742 88.0766C26.8936 88.1638 26.813 88.2447 26.7293 88.3319C26.1807 88.886 25.6352 89.4432 25.0804 89.9818C24.9874 90.0752 24.8945 90.1654 24.8015 90.2557C24.1971 90.8472 23.5834 91.4355 22.9666 92.0083C22.5389 92.4068 22.105 92.7991 21.668 93.1851H21.4293C21.8725 92.6621 22.3158 92.1422 22.7683 91.6286C23.32 90.9904 23.881 90.3616 24.445 89.7358C24.9874 89.1195 25.5422 88.5249 26.0939 87.921C26.159 87.8462 26.2272 87.7746 26.2923 87.6999L27.9815 85.8726C27.9815 85.8726 27.9815 85.8726 27.9815 85.8664L28.1488 85.6858L30.024 83.6873C30.6563 83.0335 31.273 82.3549 31.9084 81.7043C33.0676 80.4653 34.2423 79.2512 35.3736 77.9655C35.4603 77.869 35.5471 77.7694 35.6339 77.6698L35.637 77.6729Z" fill="#30307F"/>
<path opacity="0.26" d="M17.3288 92.4348C17.3133 92.4161 17.304 92.3974 17.2885 92.3818C16.8019 91.6908 16.3153 90.9436 15.8597 90.1529C15.6242 89.742 15.3948 89.3186 15.1778 88.8922C14.9454 88.4314 14.7222 87.9583 14.5208 87.4789C14.0466 86.3644 13.6684 85.2126 13.4422 84.0576C13.2655 83.1735 13.3368 82.5478 13.5476 82.0996C13.6839 81.8007 13.8823 81.5859 14.1116 81.4147C15.3793 80.4715 17.5923 81.0567 15.6861 78.9523C13.9226 77.0036 12.9742 73.9154 13.1601 71.5153C13.1787 71.2538 13.2128 71.0048 13.2593 70.7651C13.4608 71.0764 13.7459 71.1916 14.155 70.8118C15.2956 69.7378 17.3598 69.7378 18.2866 71.7426C19.2133 73.7473 18.6616 76.8137 17.9301 78.255C17.2018 79.6932 19.7154 77.7476 21.1008 80.2909C22.3747 82.6225 20.9241 88.556 17.3288 92.4379V92.4348Z" fill="#30307F"/>
<path d="M19.6502 87.3388C19.0985 88.777 18.3268 90.4456 17.2916 92.3788C17.2854 92.3912 17.2761 92.4037 17.273 92.4161C17.1645 92.6154 17.056 92.8177 16.9413 93.0232C16.6903 93.0014 16.4454 92.9765 16.2068 92.9516C16.1541 92.9453 16.1045 92.9391 16.0549 92.9329C14.2448 92.7243 12.7912 92.4099 11.6444 92.055C10.7425 91.3919 9.86848 90.5296 9.18041 89.4121C9.07503 89.2409 8.97275 89.0759 8.87977 88.9078C6.80626 85.3091 7.36725 83.2732 8.6938 82.9463C10.0792 82.607 10.0792 81.5019 8.76199 80.8201C7.44474 80.1384 5.50451 78.694 6.12749 76.3094C6.75047 73.9279 8.20409 75.9701 9.17731 74.6937C10.1474 73.4174 7.03252 68.9907 9.52134 67.621C10.1102 67.2972 10.5906 67.2287 10.9843 67.3377C12.3635 67.705 12.7106 70.1985 13.16 71.5091C13.3243 71.9885 13.501 72.3092 13.7458 72.3092C14.8554 72.3092 15.5466 69.4172 17.1397 70.9488C18.7359 72.4804 18.5282 76.051 17.1397 78.0091C15.7543 79.9672 17.0033 79.9672 18.6646 79.3695C19.9787 78.8994 22.3219 80.3937 19.6471 87.3357L19.6502 87.3388Z" fill="#8080CE"/>
<path opacity="0.52" d="M16.2036 92.9515C16.1509 92.9453 16.1014 92.9391 16.0518 92.9328C15.9991 92.6713 15.9402 92.4099 15.8844 92.1484C15.655 91.0588 15.4257 89.9692 15.1808 88.8859C15.0755 88.4034 14.9639 87.9209 14.8492 87.4415C14.8492 87.4321 14.8492 87.4259 14.843 87.4197C14.4246 85.639 14 83.8615 13.5474 82.0964C13.4328 81.6544 13.3181 81.2155 13.2034 80.7765C13.0639 80.2255 12.9183 79.6745 12.7695 79.1266L12.3232 77.4798L11.8738 75.833C11.7157 75.2852 11.5669 74.7373 11.4151 74.1863C10.8355 72.1441 10.2466 70.1082 9.65149 68.063C9.6081 67.9166 9.56471 67.7703 9.52441 67.624C9.5802 67.7485 9.63599 67.8762 9.68868 68.0038C10.5286 69.9339 11.2632 71.9262 11.9358 73.9466C12.2984 75.0237 12.63 76.1101 12.9617 77.2028C13.1321 77.7476 13.2747 78.3017 13.4328 78.8527C13.5908 79.4037 13.7396 79.9547 13.8853 80.5088C13.9628 80.8108 14.0403 81.1096 14.1146 81.4116C14.3192 82.2241 14.5114 83.0397 14.6973 83.8584C14.8275 84.4156 14.936 84.9853 15.0569 85.5488C15.1746 86.1122 15.2893 86.6757 15.3885 87.2485C15.3978 87.3014 15.4071 87.3481 15.4164 87.401C15.5838 88.31 15.7356 89.2252 15.8627 90.1467C15.9619 90.8378 16.0518 91.5258 16.1262 92.22C16.1509 92.4628 16.1788 92.7087 16.2036 92.9515Z" fill="#30307F"/>
<path opacity="0.26" d="M17.2699 92.4161C17.1614 92.6154 17.053 92.8177 16.9383 93.0232C16.6872 93.0014 16.4424 92.9765 16.2037 92.9516C16.151 92.9453 16.1014 92.9391 16.0518 92.9329C14.2418 92.7243 12.7882 92.4099 11.6414 92.055C10.7395 91.3919 9.86543 90.5296 9.17736 89.4121C9.07198 89.2409 8.9697 89.0759 8.87671 88.9078C6.80321 85.3091 7.3642 83.2732 8.69075 82.9463C10.0762 82.607 10.0762 81.5019 8.75894 80.8201C7.44169 80.1384 5.50146 78.694 6.12444 76.3094C6.74742 73.9279 8.20104 75.9701 9.17426 74.6937C10.1444 73.4174 7.02947 68.9907 9.51829 67.621C10.1072 67.2972 10.5876 67.2287 10.9812 67.3377C10.6403 67.3688 10.0421 67.4996 9.68566 68.0007C9.67016 68.0194 9.66086 68.0381 9.64847 68.0568C9.30443 68.5891 9.22385 69.5074 9.91811 71.092C11.6414 75.0237 11.1145 75.17 9.51829 76.602C7.9221 78.034 10.2745 79.2481 11.7685 80.8949C13.2624 82.5416 11.4833 82.7564 10.6992 84.4717C10.0328 85.9317 11.6848 90.8814 15.8783 92.1453C15.9589 92.1702 16.0363 92.1951 16.12 92.2138C16.4827 92.3072 16.8639 92.3725 17.2637 92.4099L17.2699 92.4161Z" fill="#30307F"/>
<path opacity="0.26" d="M36.1329 78.7469C36.1112 78.7002 35.8664 78.2146 35.4355 77.9967C35.4169 77.9842 35.3983 77.978 35.3797 77.9687C34.9675 77.7881 34.4034 77.8628 33.7154 78.75C32.2183 80.6863 31.2947 82.4016 29.9403 81.614C28.5858 80.8264 28.0156 81.3245 26.5929 85.3683C25.1703 89.4121 24.2436 85.9785 23.2456 86.9092C22.5327 87.5723 22.1763 90.2028 22.7683 91.6286C22.824 91.7687 22.8922 91.8963 22.9666 92.0084C23.2053 92.3632 23.54 92.5749 23.9801 92.5594C25.7499 92.4971 28.8059 91.7064 30.5323 91.2924C30.4579 91.5383 30.3184 91.806 30.1077 92.0769C28.403 92.6154 25.8584 93.0855 22.2878 93.1757C22.0864 93.1757 21.8818 93.1851 21.668 93.1851H21.4293C21.2991 93.1913 21.1659 93.1913 21.0295 93.1913C20.9613 93.1913 20.89 93.1913 20.8187 93.1913C20.8187 93.0481 20.8249 92.8893 20.828 92.7119C20.8404 92.2418 20.8559 91.6628 20.8931 91.0247C20.8931 91.0184 20.8931 91.0122 20.8931 91.006V90.9998C20.9551 89.8822 21.0698 88.5996 21.2743 87.4136C21.4479 86.4205 21.6835 85.4991 22.0089 84.8111C22.2383 84.3223 22.5172 83.955 22.8395 83.7651C23.0038 83.6686 23.1805 83.6157 23.3726 83.6157C25.1765 83.6157 24.2746 85.7543 25.037 85.7543C25.7995 85.7543 27.095 78.28 28.9144 77.757C29.057 77.7134 29.184 77.6916 29.3018 77.6854H29.308C30.7492 77.5858 30.1665 79.8769 31.0623 79.7991C32.0324 79.712 33.765 75.8861 35.6339 77.6729C35.9748 77.9998 36.1205 78.364 36.1298 78.7469H36.1329Z" fill="#30307F"/>
<path d="M112.301 34.1623L112.673 32.2914L112.955 34.1748L114.873 34.5452L112.933 34.6728L112.583 36.4908L112.344 34.7226L110.512 34.3896L112.301 34.1623Z" fill="#8080CE"/>
<path d="M66.7364 94.2871L67.1022 92.4348L67.3842 94.3026L69.2841 94.6669L67.3625 94.7945L67.0185 96.5938L66.7798 94.8412L64.9667 94.5143L66.7364 94.2871Z" fill="#8080CE"/>
<path d="M80.2096 8.35851L80.5257 6.76465L80.7644 8.37096L82.4009 8.68538L80.7458 8.79745L80.4514 10.3446L80.2468 8.83792L78.6847 8.55463L80.2096 8.35851Z" fill="#8080CE"/>
<path d="M112.037 75.3911L112.354 73.7972L112.595 75.4036L114.229 75.718L112.577 75.8269L112.279 77.3772L112.075 75.8674L110.512 75.5872L112.037 75.3911Z" fill="#8080CE"/>
<path d="M12.9989 62.0487L13.4173 59.9443L13.7366 62.0643L15.8937 62.4783L13.7118 62.6246L13.3181 64.6668L13.0485 62.6776L10.9905 62.3071L12.9989 62.0487Z" fill="#8080CE"/>
<path d="M17.242 21.3336L17.6635 19.2012L17.9859 21.3492L20.1709 21.7694L17.9611 21.9188L17.5643 23.989L17.2916 21.9718L15.2057 21.5951L17.242 21.3336Z" fill="#8080CE"/>
</g>
<defs>
<clipPath id="clip0_5_690">
<rect width="123" height="104.395" fill="white"/>
</clipPath>
</defs>
</svg>
