<svg width="67" height="67" viewBox="0 0 67 67" fill="none" xmlns="http://www.w3.org/2000/svg">
<circle cx="33.7464" cy="33.3642" r="33.1188" fill="#30B9C2"/>
<path d="M50.3434 18.9552V54.4829C50.3434 55.3297 50.007 56.1417 49.4083 56.7405C48.8095 57.3392 47.9974 57.6756 47.1507 57.6756H20.0119C19.1652 57.6756 18.3531 57.3392 17.7543 56.7405C17.1556 56.1417 16.8192 55.3297 16.8192 54.4829V18.9552C16.8192 18.1083 17.1556 17.2962 17.7543 16.6972C18.353 16.0983 19.1651 15.7617 20.0119 15.7615H27.6491C27.0138 15.7615 26.4046 16.0138 25.9554 16.463C25.5062 16.9122 25.2538 17.5215 25.2538 18.1568C25.2538 18.792 25.5062 19.4013 25.9554 19.8505C26.4046 20.2997 27.0138 20.5521 27.6491 20.5521H39.5214C40.1567 20.5521 40.7659 20.2997 41.2152 19.8505C41.6644 19.4013 41.9167 18.792 41.9167 18.1568C41.9167 17.5215 41.6644 16.9122 41.2152 16.463C40.7659 16.0138 40.1567 15.7615 39.5214 15.7615H47.1586C48.0041 15.7638 48.8141 16.1014 49.4111 16.7C50.0081 17.2987 50.3434 18.1097 50.3434 18.9552Z" fill="#874829"/>
<path d="M39.7019 57.6757H20.0119C19.5926 57.6757 19.1773 57.593 18.7899 57.4325C18.4025 57.272 18.0505 57.0368 17.754 56.7402C17.4575 56.4436 17.2224 56.0915 17.062 55.704C16.9016 55.3166 16.8191 54.9013 16.8192 54.4819V27.9086C20.2758 40.5674 28.6221 51.2079 39.7019 57.6757Z" fill="#703B24"/>
<path d="M47.3499 21.9486V51.4885C47.3499 52.3354 47.0136 53.1476 46.4149 53.7465C45.8161 54.3454 45.0041 54.682 44.1572 54.6823H23.0052C22.1584 54.682 21.3463 54.3454 20.7476 53.7465C20.1488 53.1476 19.8125 52.3354 19.8125 51.4885V21.9486C19.8125 21.1018 20.1489 20.2897 20.7476 19.691C21.3464 19.0922 22.1585 18.7559 23.0052 18.7559H25.3251C25.458 19.2701 25.7579 19.7256 26.1779 20.0507C26.5978 20.3759 27.1139 20.5522 27.6451 20.5521H39.5174C40.0484 20.5521 40.5645 20.3757 40.9844 20.0505C41.4043 19.7254 41.7043 19.27 41.8373 18.7559H44.1572C45.004 18.7559 45.816 19.0922 46.4148 19.691C47.0136 20.2897 47.3499 21.1018 47.3499 21.9486Z" fill="#F7F5FB"/>
<path d="M39.5175 15.7615H37.9801C38.294 15.0329 38.422 14.2377 38.3525 13.4474C38.2831 12.6571 38.0184 11.8964 37.5823 11.2337C37.1462 10.571 36.5523 10.027 35.854 9.65054C35.1556 9.2741 34.3747 9.07703 33.5813 9.07703C32.788 9.07703 32.0071 9.2741 31.3087 9.65054C30.6103 10.027 30.0164 10.571 29.5803 11.2337C29.1442 11.8964 28.8796 12.6571 28.8101 13.4474C28.7407 14.2377 28.8686 15.0329 29.1825 15.7615H27.6452C27.0099 15.7615 26.4006 16.0139 25.9514 16.4631C25.5022 16.9123 25.2499 17.5216 25.2499 18.1568C25.2499 18.7921 25.5022 19.4013 25.9514 19.8505C26.4006 20.2998 27.0099 20.5521 27.6452 20.5521H39.5175C39.8321 20.5522 40.1436 20.4904 40.4343 20.37C40.7249 20.2497 40.9891 20.0733 41.2115 19.8508C41.434 19.6284 41.6104 19.3643 41.7307 19.0736C41.851 18.7829 41.9129 18.4714 41.9128 18.1568C41.9129 17.8422 41.851 17.5307 41.7307 17.24C41.6104 16.9494 41.434 16.6853 41.2115 16.4628C40.9891 16.2404 40.7249 16.0639 40.4343 15.9436C40.1436 15.8233 39.8321 15.7614 39.5175 15.7615Z" fill="#CFDCE5"/>
<path d="M35.1682 54.6823H23.0052C22.1584 54.682 21.3463 54.3454 20.7476 53.7465C20.1488 53.1476 19.8125 52.3354 19.8125 51.4886V35.999C23.3176 43.3942 28.5918 49.8113 35.1682 54.6823Z" fill="#E4E3E8"/>
<path d="M43.1643 42.0759H27.1868C27.0289 42.0759 26.8776 42.0133 26.766 41.9016C26.6544 41.79 26.5917 41.6387 26.5917 41.4808C26.5917 41.323 26.6544 41.1716 26.766 41.06C26.8776 40.9484 27.0289 40.8857 27.1868 40.8857H43.1643C43.3222 40.8857 43.4735 40.9484 43.5851 41.06C43.6967 41.1716 43.7594 41.323 43.7594 41.4808C43.7594 41.6387 43.6967 41.79 43.5851 41.9016C43.4735 42.0133 43.3222 42.0759 43.1643 42.0759Z" fill="#4A5058"/>
<path d="M23.9971 42.076C23.9582 42.076 23.9193 42.072 23.8811 42.0641C23.8431 42.0564 23.8059 42.0451 23.77 42.0304C23.7353 42.015 23.7021 41.9964 23.6708 41.9749C23.6386 41.9531 23.6084 41.9286 23.5806 41.9015C23.5528 41.8736 23.5279 41.843 23.5062 41.8102C23.4631 41.7456 23.4331 41.6731 23.4179 41.597C23.402 41.5201 23.402 41.4408 23.4179 41.3639C23.4257 41.3259 23.437 41.2887 23.4516 41.2528C23.467 41.2183 23.4853 41.1851 23.5062 41.1536C23.5282 41.1213 23.5531 41.0911 23.5806 41.0634C23.6081 41.0359 23.6384 41.0114 23.6708 40.99C23.7021 40.9684 23.7353 40.9498 23.77 40.9344C23.8059 40.9197 23.8431 40.9085 23.8811 40.9007C23.9581 40.8858 24.0372 40.8858 24.1142 40.9007C24.1522 40.9085 24.1894 40.9197 24.2253 40.9344C24.2601 40.9495 24.2933 40.9682 24.3245 40.99C24.3572 41.0114 24.3878 41.0359 24.4157 41.0634C24.4426 41.0914 24.4671 41.1216 24.4891 41.1536C24.5103 41.1849 24.5286 41.2181 24.5437 41.2528C24.5586 41.2887 24.5703 41.3259 24.5784 41.3639C24.5855 41.4025 24.5891 41.4417 24.5893 41.4809C24.5893 41.6387 24.5266 41.7901 24.415 41.9017C24.3034 42.0133 24.152 42.076 23.9942 42.076H23.9971Z" fill="#4A5058"/>
<path d="M43.1643 47.0352H27.1868C27.0289 47.0352 26.8776 46.9725 26.766 46.8609C26.6544 46.7493 26.5917 46.5979 26.5917 46.4401C26.5917 46.2822 26.6544 46.1309 26.766 46.0193C26.8776 45.9077 27.0289 45.845 27.1868 45.845H43.1643C43.3222 45.845 43.4735 45.9077 43.5851 46.0193C43.6967 46.1309 43.7594 46.2822 43.7594 46.4401C43.7594 46.5979 43.6967 46.7493 43.5851 46.8609C43.4735 46.9725 43.3222 47.0352 43.1643 47.0352Z" fill="#4A5058"/>
<path d="M23.9971 47.0342C23.9582 47.034 23.9194 47.0304 23.8811 47.0233C23.8431 47.0152 23.8059 47.0036 23.77 46.9886C23.7353 46.9736 23.7021 46.9553 23.6708 46.9341C23.6056 46.891 23.5496 46.8354 23.5062 46.7704C23.4853 46.7389 23.467 46.7057 23.4516 46.6712C23.437 46.6353 23.4257 46.5981 23.4179 46.5601C23.41 46.5216 23.406 46.4824 23.406 46.4431C23.406 46.4041 23.41 46.3652 23.4179 46.3271C23.4257 46.2891 23.437 46.2519 23.4516 46.216C23.467 46.1815 23.4853 46.1483 23.5062 46.1168C23.5282 46.0845 23.5531 46.0543 23.5806 46.0265C23.6081 45.9991 23.6384 45.9745 23.6708 45.9531C23.7021 45.9316 23.7353 45.913 23.77 45.8976C23.8059 45.8829 23.8431 45.8716 23.8811 45.8639C23.9966 45.8411 24.1163 45.8528 24.2253 45.8976C24.2601 45.9127 24.2933 45.9313 24.3244 45.9531C24.3572 45.9745 24.3878 45.9991 24.4157 46.0265C24.4426 46.0546 24.4671 46.0847 24.4891 46.1168C24.5103 46.1481 24.5286 46.1813 24.5436 46.216C24.5586 46.2518 24.5703 46.289 24.5784 46.3271C24.5854 46.3653 24.5891 46.4042 24.5893 46.4431C24.5891 46.4824 24.5854 46.5215 24.5784 46.5601C24.5703 46.5982 24.5586 46.6354 24.5436 46.6712C24.5286 46.7059 24.5103 46.7391 24.4891 46.7704C24.4671 46.8024 24.4426 46.8326 24.4157 46.8607C24.304 46.9706 24.1539 47.0329 23.9971 47.0342Z" fill="#4A5058"/>
<path d="M43.1643 51.9944H27.1868C27.0289 51.9944 26.8776 51.9317 26.766 51.8201C26.6544 51.7085 26.5917 51.5571 26.5917 51.3993C26.5917 51.2415 26.6544 51.0901 26.766 50.9785C26.8776 50.8669 27.0289 50.8042 27.1868 50.8042H43.1643C43.3222 50.8042 43.4735 50.8669 43.5851 50.9785C43.6967 51.0901 43.7594 51.2415 43.7594 51.3993C43.7594 51.5571 43.6967 51.7085 43.5851 51.8201C43.4735 51.9317 43.3222 51.9944 43.1643 51.9944Z" fill="#4A5058"/>
<path d="M23.9971 51.9934C23.9582 51.9932 23.9194 51.9896 23.8811 51.9825C23.843 51.9744 23.8059 51.9628 23.77 51.9478C23.7353 51.9328 23.7021 51.9145 23.6708 51.8932C23.6386 51.8715 23.6084 51.847 23.5805 51.8199C23.5252 51.7646 23.4813 51.6989 23.4514 51.6267C23.4214 51.5545 23.406 51.477 23.406 51.3988C23.406 51.3206 23.4214 51.2432 23.4514 51.1709C23.4813 51.0987 23.5252 51.033 23.5805 50.9778C23.6081 50.9504 23.6383 50.9258 23.6708 50.9044C23.7021 50.8828 23.7353 50.8642 23.77 50.8488C23.8059 50.8342 23.8431 50.8229 23.8811 50.8151C23.9581 50.8002 24.0372 50.8002 24.1142 50.8151C24.1521 50.8229 24.1893 50.8342 24.2252 50.8488C24.2601 50.864 24.2933 50.8826 24.3244 50.9044C24.3572 50.9258 24.3877 50.9504 24.4157 50.9778C24.471 51.033 24.5149 51.0987 24.5448 51.1709C24.5748 51.2432 24.5902 51.3206 24.5902 51.3988C24.5902 51.477 24.5748 51.5545 24.5448 51.6267C24.5149 51.6989 24.471 51.7646 24.4157 51.8199C24.3875 51.847 24.357 51.8716 24.3244 51.8932C24.2933 51.9147 24.2601 51.933 24.2252 51.9478C24.1894 51.9628 24.1522 51.9744 24.1142 51.9825C24.0755 51.9896 24.0364 51.9933 23.9971 51.9934Z" fill="#4A5058"/>
<path d="M43.1643 37.1167H27.1868C27.0289 37.1167 26.8776 37.054 26.766 36.9424C26.6544 36.8308 26.5917 36.6794 26.5917 36.5216C26.5917 36.3638 26.6544 36.2124 26.766 36.1008C26.8776 35.9892 27.0289 35.9265 27.1868 35.9265H43.1643C43.3222 35.9265 43.4735 35.9892 43.5851 36.1008C43.6967 36.2124 43.7594 36.3638 43.7594 36.5216C43.7594 36.6794 43.6967 36.8308 43.5851 36.9424C43.4735 37.054 43.3222 37.1167 43.1643 37.1167Z" fill="#4A5058"/>
<path d="M23.9972 37.1158C23.8795 37.1157 23.7646 37.0807 23.6668 37.0153C23.5691 36.9499 23.4929 36.857 23.4479 36.7483C23.4029 36.6397 23.3911 36.5201 23.414 36.4047C23.4369 36.2894 23.4935 36.1834 23.5766 36.1001C23.6039 36.0724 23.6342 36.0478 23.6669 36.0267C23.6981 36.0052 23.7314 35.9866 23.7661 35.9712C23.802 35.9565 23.8392 35.9452 23.8772 35.9375C23.9927 35.9147 24.1124 35.9264 24.2213 35.9712C24.2562 35.9863 24.2894 36.0049 24.3205 36.0267C24.3535 36.0478 24.3841 36.0724 24.4118 36.1001C24.5223 36.2123 24.5846 36.3632 24.5853 36.5207C24.5852 36.5599 24.5815 36.5991 24.5744 36.6377C24.5663 36.6757 24.5547 36.7129 24.5397 36.7488C24.5247 36.7835 24.5064 36.8167 24.4852 36.848C24.4632 36.88 24.4386 36.9102 24.4118 36.9382C24.3017 37.0487 24.1531 37.1123 23.9972 37.1158Z" fill="#4A5058"/>
<path d="M35.433 32.0415H34.6554C34.4071 32.0415 34.1689 31.9429 33.9933 31.7673C33.8178 31.5917 33.7191 31.3535 33.7191 31.1052V25.8613C33.7191 25.613 33.8178 25.3749 33.9933 25.1993C34.1689 25.0237 34.4071 24.925 34.6554 24.925H35.433C36.2389 24.9261 37.0116 25.2467 37.5815 25.8166C38.1513 26.3865 38.472 27.1591 38.473 27.965V29.0015C38.472 29.8074 38.1513 30.5801 37.5815 31.1499C37.0116 31.7198 36.2389 32.0404 35.433 32.0415ZM34.9093 30.8513H35.433C35.9234 30.8505 36.3934 30.6554 36.7401 30.3086C37.0869 29.9619 37.282 29.4919 37.2828 29.0015V27.965C37.2823 27.4746 37.0872 27.0044 36.7404 26.6576C36.3936 26.3108 35.9234 26.1158 35.433 26.1153H34.9093V30.8513Z" fill="#F46969"/>
<path d="M29.1487 32.0415C27.3783 32.0415 25.9371 30.4456 25.9371 28.4828C25.9371 26.5199 27.3783 24.925 29.1487 24.925C30.9191 24.925 32.3603 26.5209 32.3603 28.4828C32.3603 30.4446 30.9191 32.0415 29.1487 32.0415ZM29.1487 26.1153C28.0339 26.1153 27.1273 27.1775 27.1273 28.4828C27.1273 29.788 28.0339 30.8513 29.1487 30.8513C30.2635 30.8513 31.1701 29.789 31.1701 28.4828C31.1701 27.1765 30.2635 26.1153 29.1487 26.1153Z" fill="#F46969"/>
<path d="M42.1488 32.0415C40.3774 32.0415 38.9373 30.4456 38.9373 28.4828C38.9373 26.5199 40.3774 24.925 42.1488 24.925C43.9203 24.925 45.3594 26.5209 45.3594 28.4828C45.3594 30.4446 43.9193 32.0415 42.1488 32.0415ZM42.1488 26.1153C41.034 26.1153 40.1275 27.1775 40.1275 28.4828C40.1275 29.788 41.034 30.8513 42.1488 30.8513C43.2637 30.8513 44.1692 29.789 44.1692 28.4828C44.1692 27.1765 43.2627 26.1153 42.1488 26.1153Z" fill="#F46969"/>
<path d="M24.0695 32.0416C23.9116 32.0416 23.7603 31.9789 23.6487 31.8673C23.5371 31.7557 23.4744 31.6043 23.4744 31.4465V25.672C23.4744 25.5142 23.5371 25.3628 23.6487 25.2512C23.7603 25.1396 23.9116 25.0769 24.0695 25.0769C24.2273 25.0769 24.3787 25.1396 24.4903 25.2512C24.6019 25.3628 24.6646 25.5142 24.6646 25.672V31.4465C24.6646 31.6043 24.6019 31.7557 24.4903 31.8673C24.3787 31.9789 24.2273 32.0416 24.0695 32.0416Z" fill="#F46969"/>
<path d="M25.7457 26.1153H22.3972C22.2394 26.1153 22.088 26.0526 21.9764 25.941C21.8648 25.8294 21.8021 25.678 21.8021 25.5202C21.8021 25.3623 21.8648 25.211 21.9764 25.0994C22.088 24.9877 22.2394 24.925 22.3972 24.925H25.7457C25.9035 24.925 26.0549 24.9877 26.1665 25.0994C26.2781 25.211 26.3408 25.3623 26.3408 25.5202C26.3408 25.678 26.2781 25.8294 26.1665 25.941C26.0549 26.0526 25.9035 26.1153 25.7457 26.1153Z" fill="#F46969"/>
</svg>
